<svg width="22" height="49" viewBox="0 0 22 49" fill="none" xmlns="http://www.w3.org/2000/svg">
<path d="M9.69645 48.5277C9.68468 48.4099 9.66376 48.2907 9.66376 48.1728C9.66115 47.1396 9.66377 46.105 9.66115 45.0718C9.66115 44.8649 9.69514 44.6697 9.76444 44.4733C10.481 42.4592 11.1922 40.4438 11.9048 38.4284C11.9597 38.2738 12.0081 38.1167 12.0382 37.9504C11.629 38.6261 11.2681 39.3267 10.898 40.0221C10.5202 40.7332 10.141 41.443 9.76313 42.1528C9.39049 42.8521 9.01654 43.5501 8.64129 44.2546C8.48046 44.29 8.32879 44.2887 8.16013 44.2546C8.11698 44.1446 8.06991 44.0359 8.02938 43.9246C7.04351 41.2426 6.05897 38.5593 5.06787 35.8786C4.98812 35.6612 4.93712 35.4452 4.93843 35.2134C4.93974 35.0209 4.92273 34.8297 4.91489 34.6372C4.90966 34.5088 4.85344 34.4159 4.74492 34.3386C4.44288 34.1199 4.1487 33.892 3.85058 33.6681C2.97717 33.0107 2.10506 32.352 1.23164 31.6933C1.17411 31.6501 1.12182 31.6016 1.0486 31.54C1.0486 31.0634 0.996288 30.5762 1.00021 30.0877C1.0512 30.0681 1.08389 30.0485 1.11658 30.0458C1.20026 30.0393 1.28394 30.0393 1.36893 30.0393C3.45963 30.0327 5.54903 30.0249 7.63974 30.0196C11.2916 30.0118 14.9435 30.0065 18.5953 30C18.7379 30 18.8804 30.0052 19.0151 30.0079C19.087 30.2645 19.1027 31.0044 19.0504 31.5859C17.8004 32.5288 16.536 33.4834 15.252 34.4525C15.2337 34.7315 15.2076 35.0169 15.1984 35.3037C15.1919 35.5002 15.1448 35.6809 15.0768 35.8616C13.5196 39.9592 11.9637 44.0569 10.409 48.1545C10.362 48.2776 10.3201 48.4033 10.2757 48.5277H9.69907H9.69645Z" fill="#041578"/>
<path d="M3.75651 16.6648C2.9014 16.6674 2.16004 16.9568 1.55204 17.5605C0.951897 18.1564 0.656402 18.8884 0.639404 19.7344C0.651172 21.429 1.98876 22.7923 3.70552 22.8158C5.42881 22.7962 6.74417 21.4369 6.77947 19.7855C6.77686 18.929 6.48659 18.1865 5.88382 17.5776C5.30067 16.9869 4.58416 16.6923 3.75781 16.6648H3.75651ZM3.37471 17.5828C3.42048 17.5396 3.45578 17.4924 3.49108 17.4414C3.59961 17.2881 3.75258 17.2083 3.93825 17.2096C4.11869 17.2096 4.26644 17.2908 4.37365 17.4374C4.42464 17.5068 4.46125 17.5841 4.47041 17.6718C4.47564 17.7203 4.49133 17.7622 4.51225 17.8054C4.55932 17.9076 4.53055 18.0294 4.44687 18.104C4.40895 18.1381 4.3645 18.1485 4.31481 18.1407C4.27951 18.1341 4.25205 18.104 4.25859 18.0713C4.27297 17.9927 4.28867 17.9128 4.30436 17.8342C4.31613 17.7779 4.31482 17.7216 4.30174 17.6653C4.26121 17.4872 4.10169 17.3733 3.9304 17.3746C3.75258 17.3746 3.60483 17.4937 3.56299 17.6705C3.54861 17.7308 3.53946 17.791 3.52639 17.8513C3.52116 17.8748 3.51462 17.8971 3.50677 17.9194C3.49762 17.9469 3.46494 17.9613 3.43748 17.9547C3.36557 17.9377 3.32241 17.8879 3.30803 17.8185C3.29103 17.7308 3.30541 17.6457 3.3734 17.5828H3.37471ZM3.91733 18.1747C3.74736 18.1721 3.5643 18.0294 3.58261 17.812C3.57476 17.6496 3.73951 17.482 3.92518 17.4846C4.14484 17.4938 4.27166 17.6784 4.26643 17.8473C4.2612 18.0202 4.09515 18.1773 3.91864 18.1734L3.91733 18.1747ZM2.54445 20.5581C2.54445 20.8384 2.54445 21.1186 2.54445 21.3989C2.54445 21.4421 2.54183 21.484 2.54052 21.5272C2.54052 21.5442 2.52091 21.5613 2.50261 21.5626C2.49345 21.5626 2.4843 21.5652 2.47384 21.5652C2.1705 21.5652 1.86716 21.5652 1.56381 21.5652C1.54943 21.5652 1.53505 21.5613 1.52197 21.5573C1.51413 21.5547 1.50628 21.5469 1.50236 21.539C1.49713 21.5259 1.49452 21.5115 1.49321 21.4984C1.4919 21.4657 1.4919 21.4316 1.4919 21.3989C1.4919 20.8384 1.4919 20.2779 1.4919 19.7187C1.4919 19.6899 1.4919 19.6611 1.4919 19.6336C1.4906 19.5341 1.5612 19.4777 1.64226 19.4817C1.69456 19.4843 1.74686 19.4817 1.79916 19.4817C1.96522 19.4817 2.13127 19.4817 2.29733 19.4817C2.32609 19.4817 2.35486 19.483 2.38232 19.4817C2.48169 19.4764 2.54968 19.5314 2.54445 19.648C2.54314 19.6807 2.54445 19.7148 2.54445 19.7475C2.54445 20.0186 2.54445 20.2884 2.54445 20.5594V20.5581ZM4.7476 18.9696C4.72014 19.0024 4.68876 19.0312 4.65738 19.0613C4.57893 19.1373 4.50179 19.2132 4.42072 19.2918C4.42857 19.3573 4.4338 19.4083 4.43903 19.4568C4.45733 19.4817 4.48348 19.4777 4.5044 19.4869C4.56193 19.5105 4.59593 19.5524 4.59724 19.6166C4.59724 19.6493 4.59724 19.6833 4.59724 19.7161C4.59724 20.2766 4.59724 20.8371 4.59724 21.3976C4.59724 21.4408 4.59462 21.4827 4.592 21.5259C4.592 21.5442 4.5724 21.5613 4.5554 21.5626C4.53709 21.5639 4.51748 21.5665 4.49918 21.5665C3.96833 21.5665 3.43748 21.5665 2.90663 21.5665C2.88832 21.5665 2.8674 21.5665 2.8504 21.5599C2.83863 21.556 2.82425 21.5429 2.82295 21.5324C2.81772 21.4945 2.81641 21.4565 2.81641 21.4185C2.81641 21.0531 2.81641 20.6878 2.81641 20.3211C2.81641 20.1168 2.81641 19.9125 2.81641 19.7082C2.81641 19.6755 2.81641 19.6414 2.81641 19.6087C2.81641 19.5681 2.8321 19.5314 2.86479 19.5105C2.90924 19.4817 2.92624 19.4424 2.93016 19.3926C2.93147 19.3677 2.955 19.3481 2.97723 19.3468C3.01515 19.3442 3.05307 19.3429 3.09098 19.3429C3.14721 19.3429 3.15636 19.3546 3.16943 19.4201C3.17205 19.4332 3.17467 19.4476 3.18251 19.4607C3.18643 19.4673 3.1982 19.4725 3.20605 19.4725C3.21389 19.4725 3.22174 19.4646 3.22958 19.4594C3.2335 19.4568 3.23481 19.4515 3.23612 19.4476C3.24396 19.4162 3.2335 19.3782 3.2675 19.3573C3.29757 19.3389 3.33157 19.3455 3.36426 19.3442C3.37864 19.3442 3.39302 19.3442 3.4074 19.3442C3.45839 19.3455 3.47016 19.3573 3.48193 19.4096C3.48585 19.428 3.49239 19.445 3.49893 19.4633C3.49893 19.466 3.50677 19.466 3.512 19.466C3.51592 19.466 3.52246 19.466 3.52377 19.4633C3.54208 19.4332 3.53292 19.3992 3.53815 19.3664C3.54338 19.3285 3.56561 19.3049 3.60222 19.3036C3.68721 19.3023 3.7722 19.3036 3.85849 19.3009C3.90556 19.3009 3.95263 19.3075 4.00362 19.2918C4.03108 19.2329 4.07554 19.1844 4.12392 19.1386C4.19976 19.0665 4.27428 18.9945 4.35012 18.9225C4.37888 18.895 4.37889 18.8753 4.35274 18.8518C4.31351 18.8177 4.27297 18.785 4.23244 18.7509C4.22852 18.7483 4.2246 18.7457 4.22068 18.7431C4.20629 18.7326 4.18145 18.7431 4.17622 18.764C4.17099 18.7824 4.16707 18.8007 4.16184 18.819C4.11346 19.0338 4.15269 18.9644 3.99317 19.1163C3.98663 19.1228 3.97878 19.1294 3.97225 19.1359C3.94871 19.1621 3.91864 19.1726 3.88334 19.1726C3.80227 19.1726 3.72252 19.1739 3.64145 19.1726C3.58784 19.1726 3.53684 19.1765 3.48977 19.204C3.46362 19.2184 3.43617 19.2224 3.4074 19.2224C3.34595 19.2224 3.2845 19.2224 3.22304 19.2224C3.20605 19.2224 3.18905 19.2001 3.19167 19.1831C3.20474 19.1176 3.21781 19.0534 3.23089 18.988C3.26358 18.8347 3.29626 18.6815 3.32895 18.5283C3.33418 18.5021 3.32241 18.4785 3.30018 18.4707C3.2335 18.4458 3.16682 18.4222 3.09883 18.4C3.00469 18.3672 2.91055 18.3371 2.81641 18.3057C2.78503 18.2952 2.75365 18.2834 2.72358 18.269C2.68435 18.2494 2.65559 18.2166 2.64513 18.1721C2.63728 18.1394 2.63205 18.1066 2.62813 18.0739C2.61767 17.994 2.60851 17.9141 2.59936 17.8342C2.57975 17.664 2.56275 17.4951 2.54314 17.3248C2.53791 17.2855 2.54575 17.2502 2.56405 17.2148C2.61766 17.114 2.76934 17.1114 2.82687 17.1991C2.83994 17.2187 2.8491 17.241 2.85433 17.2633C2.86348 17.3091 2.87001 17.3562 2.87524 17.4034C2.89616 17.5828 2.91447 17.7622 2.93408 17.9403C2.93408 17.9455 2.93408 17.9495 2.93539 17.9547C2.93931 17.9901 2.95239 18.0176 2.9903 18.0281C3.02691 18.0385 3.06222 18.0516 3.09752 18.0647C3.3551 18.1629 3.62053 18.231 3.89118 18.2808C3.98009 18.2965 4.06639 18.3188 4.1553 18.3371C4.21283 18.3489 4.26382 18.3725 4.30828 18.4078C4.44426 18.5191 4.58024 18.6305 4.71622 18.7418C4.72668 18.7509 4.73714 18.7614 4.74629 18.7719C4.79467 18.8282 4.79597 18.9107 4.74629 18.967L4.7476 18.9696ZM5.92044 19.7266C5.92044 20.0068 5.92044 20.2871 5.92044 20.5673C5.92044 20.8475 5.92044 21.1173 5.92044 21.3936C5.92044 21.4368 5.91913 21.4788 5.91782 21.522C5.91782 21.5403 5.89951 21.5599 5.88382 21.5613C5.86029 21.5639 5.83676 21.5665 5.81322 21.5665C5.53341 21.5665 5.25361 21.5665 4.9738 21.5665C4.95027 21.5665 4.92673 21.5665 4.90319 21.5599C4.89142 21.5573 4.87574 21.5442 4.87443 21.5338C4.8692 21.4919 4.86789 21.4486 4.86789 21.4067C4.86789 21.0126 4.86789 20.6184 4.86789 20.2242C4.86789 20.0539 4.86789 19.8824 4.86789 19.7122C4.86789 19.6794 4.86789 19.6454 4.86919 19.6126C4.87312 19.5419 4.92673 19.4895 4.99734 19.4843C5.01564 19.483 5.03525 19.483 5.05356 19.483C5.28106 19.483 5.50857 19.483 5.73607 19.483C5.75569 19.483 5.77399 19.483 5.7923 19.4843C5.85506 19.4882 5.91913 19.5471 5.91782 19.6152C5.91782 19.6532 5.91782 19.6912 5.91782 19.7292L5.92044 19.7266Z" fill="#F52424"/>
<path d="M14.8036 20.5385C13.2856 20.5529 12.0696 21.7472 12.0435 23.2925C12.0631 24.8902 13.3444 26.0518 14.7945 26.0518C16.3517 26.0518 17.5415 24.771 17.5455 23.3449C17.5912 21.9162 16.4406 20.5621 14.8036 20.5385ZM16.3491 23.7797C16.2602 23.8687 16.1556 23.9316 16.0418 23.9827C15.898 24.0468 15.7476 24.0914 15.5933 24.1189C15.2377 24.1804 14.886 24.1699 14.5382 24.0691C14.4153 24.0337 14.295 23.9892 14.1839 23.925C14.1093 23.8818 14.04 23.8334 13.9825 23.7679C13.9537 23.7365 13.9289 23.7011 13.9054 23.6658C13.8727 23.6121 13.8544 23.5531 13.8557 23.4903C13.8557 23.4615 13.8557 23.4327 13.8557 23.4052C13.8557 23.2585 13.8557 23.1105 13.8557 22.9638C13.8557 22.9311 13.8557 22.897 13.857 22.8643C13.857 22.8263 13.8805 22.8106 13.9106 22.8276C13.9485 22.8486 13.9851 22.8708 14.0217 22.8918C14.3564 23.0895 14.6912 23.2873 15.0259 23.485C15.1867 23.5793 15.1527 23.5793 15.3175 23.4837C15.6522 23.286 15.9869 23.0882 16.3216 22.8905C16.3622 22.8669 16.404 22.8447 16.4458 22.8224C16.4563 22.8172 16.4785 22.8276 16.4798 22.8381C16.4825 22.8617 16.4864 22.8853 16.4864 22.9088C16.4864 22.9992 16.4864 23.0895 16.4864 23.1799C16.4864 23.2703 16.4851 23.3606 16.4864 23.451C16.4903 23.5833 16.438 23.6906 16.3478 23.7823L16.3491 23.7797ZM16.9309 22.3575C16.9414 22.3654 16.9414 22.385 16.9296 22.3929C16.9139 22.4033 16.8995 22.4151 16.8825 22.4243C16.3439 22.7425 15.8065 23.0607 15.2678 23.379C15.1697 23.4366 15.1762 23.4379 15.0756 23.379C14.6715 23.1406 14.2675 22.9023 13.8635 22.6626C13.8269 22.6404 13.7903 22.6194 13.7537 22.5985C13.7158 22.5775 13.6818 22.5867 13.6556 22.6247C13.6308 22.66 13.6138 22.6993 13.6112 22.7425C13.6099 22.7661 13.6099 22.7897 13.6099 22.8132C13.6099 23.117 13.6099 23.4209 13.6099 23.7247V23.8033C13.6412 23.8334 13.6674 23.8543 13.6896 23.8779C13.789 23.9905 13.738 24.1162 13.6556 24.1765C13.6438 24.1843 13.6321 24.1922 13.619 24.1987C13.6112 24.2027 13.6007 24.2053 13.5929 24.2105C13.5811 24.2171 13.5693 24.2249 13.5549 24.2341C13.5654 24.2996 13.5746 24.3651 13.5863 24.4305C13.6099 24.5563 13.6334 24.682 13.6569 24.8077C13.6622 24.8352 13.6648 24.864 13.6674 24.8928C13.67 24.919 13.6569 24.94 13.6347 24.9491C13.6216 24.9544 13.6085 24.9596 13.5942 24.9635C13.5092 24.9923 13.4229 25.0212 13.3379 25.0487C13.3209 25.0539 13.3013 25.0644 13.2869 25.046C13.2725 25.029 13.283 25.0094 13.2882 24.9923C13.3549 24.775 13.4216 24.5576 13.487 24.3389C13.4974 24.3035 13.5196 24.2695 13.5092 24.2262C13.4791 24.2079 13.4451 24.1922 13.4137 24.1699C13.3117 24.0979 13.3222 23.9395 13.3837 23.8779C13.4072 23.8543 13.4307 23.8321 13.4582 23.8072C13.4582 23.7614 13.4608 23.7142 13.4608 23.6671C13.4608 23.4065 13.4608 23.1445 13.4608 22.8839C13.4608 22.8551 13.4608 22.8263 13.4608 22.7988C13.4569 22.7006 13.4778 22.6102 13.5366 22.5304C13.5445 22.5199 13.5471 22.5055 13.5523 22.4911C13.5144 22.4439 13.4556 22.4295 13.415 22.3915C13.4059 22.3824 13.4046 22.3614 13.4137 22.3549C13.4216 22.3496 13.4281 22.3418 13.436 22.3365C13.4516 22.3261 13.4686 22.3169 13.4843 22.3077C14.0113 21.9974 14.5369 21.6857 15.0625 21.3753C15.1749 21.3085 15.1658 21.3098 15.2795 21.3753C15.8104 21.6883 16.3399 22.0026 16.8708 22.3156C16.8917 22.3274 16.91 22.3418 16.9296 22.3549L16.9309 22.3575Z" fill="#F52424"/>
<path d="M12.6344 25.5685C12.3128 25.0473 11.8669 24.6702 11.2995 24.441C10.9804 24.3114 10.647 24.2485 10.3019 24.2472C10.2077 24.2472 10.1136 24.2511 10.0181 24.2616C9.91875 24.2721 9.81937 24.2825 9.72262 24.3035C9.38659 24.3768 9.07148 24.5039 8.78383 24.6951C8.2386 25.0565 7.86204 25.5515 7.66199 26.1736C7.54955 26.5245 7.5064 26.886 7.54562 27.2553C7.56654 27.4543 7.60184 27.6508 7.66329 27.8393C7.82673 28.3383 8.10654 28.76 8.50664 29.1004C8.83352 29.3781 9.20485 29.5706 9.62195 29.674C9.82069 29.7238 10.0207 29.7578 10.226 29.7474C10.2443 29.7474 10.2639 29.7474 10.2835 29.7474C10.3502 29.7474 10.4169 29.7474 10.4823 29.7474C10.5254 29.7474 10.5673 29.7447 10.6091 29.7382C10.7307 29.7212 10.8523 29.6989 10.9713 29.6688C11.1831 29.6138 11.3858 29.5352 11.578 29.4318C12.3899 28.997 12.9352 28.1746 13.0202 27.2736C13.0437 27.0261 13.0385 26.7799 12.9953 26.5363C12.9352 26.1919 12.8149 25.8684 12.6305 25.5699L12.6344 25.5685ZM11.9545 28.4195C11.9506 28.4666 11.9323 28.502 11.8983 28.5295C11.8813 28.5439 11.8565 28.5557 11.8356 28.5583C11.7885 28.5635 11.7414 28.5622 11.693 28.5622C10.8588 28.5622 10.0234 28.5622 9.18916 28.5622C9.02834 28.5622 8.86621 28.5622 8.70538 28.5622C8.67269 28.5622 8.6387 28.5622 8.60601 28.5622C8.53148 28.5596 8.46872 28.5007 8.4648 28.4286C8.46218 28.3723 8.46087 28.3147 8.47264 28.2584C8.48702 28.189 8.49618 28.1183 8.50795 28.0475C8.51448 28.0135 8.53279 27.986 8.56156 27.9677C8.57856 27.9572 8.59686 27.9546 8.61516 27.9624C8.65831 27.9821 8.68708 28.024 8.674 28.0646C8.65439 28.1235 8.65046 28.1851 8.63608 28.2453C8.63347 28.2597 8.62954 28.2728 8.62824 28.2872C8.60993 28.4168 8.61909 28.4273 8.74722 28.4273C9.16955 28.4273 9.59187 28.4273 10.0129 28.4273C10.549 28.4273 11.0837 28.4273 11.6198 28.4273C11.663 28.4273 11.7048 28.4273 11.748 28.426C11.7833 28.426 11.8068 28.3933 11.8003 28.3566C11.7833 28.2492 11.7702 28.1405 11.7466 28.0345C11.714 27.8865 11.6943 27.7359 11.6695 27.5866C11.6577 27.5211 11.6499 27.4556 11.6381 27.3901C11.6342 27.3666 11.625 27.3443 11.6146 27.3234C11.6028 27.2972 11.5819 27.2775 11.5557 27.2631C11.5518 27.2605 11.5479 27.2579 11.5427 27.2566C11.4158 27.2186 11.289 27.1806 11.1622 27.1426C11.1504 27.1387 11.1321 27.1518 11.1308 27.1636C11.1308 27.1688 11.1295 27.1728 11.1295 27.178C11.1295 27.2304 11.1295 27.2828 11.1295 27.3351C11.1295 27.3666 11.14 27.3915 11.17 27.4046C11.2197 27.4255 11.2576 27.4596 11.2929 27.4988C11.3322 27.5434 11.3544 27.5944 11.3557 27.6534C11.3557 27.673 11.3557 27.6913 11.3557 27.711C11.3688 27.8708 11.2027 28.003 11.0707 28.0096C10.9085 28.0174 10.7948 27.9284 10.7399 27.7909C10.7124 27.7228 10.7163 27.6508 10.7477 27.5827C10.7817 27.5067 10.8314 27.4438 10.9098 27.4111C10.9517 27.3928 10.9634 27.3613 10.9621 27.3207C10.9595 27.2448 10.9674 27.1688 10.9543 27.0837C10.9268 27.0745 10.9085 27.0693 10.8902 27.0628C10.8065 27.0313 10.8026 27.0444 10.7699 27.1099C10.7595 27.1309 10.7503 27.1531 10.7425 27.1754C10.6418 27.4412 10.5294 27.7031 10.4352 27.9716C10.396 28.0829 10.3502 28.1929 10.3084 28.3042C10.2927 28.3461 10.2718 28.3815 10.2365 28.4077C10.2247 28.4168 10.1933 28.4168 10.1829 28.4077C10.1672 28.3907 10.1476 28.3736 10.1371 28.354C10.1162 28.3121 10.0966 28.2676 10.0809 28.223C10.0116 28.0266 9.93444 27.8328 9.8573 27.639C9.79454 27.4805 9.73439 27.3207 9.67163 27.161C9.65725 27.1256 9.64025 27.0929 9.62195 27.0588C9.61802 27.0523 9.60495 27.0444 9.59841 27.047C9.55788 27.0575 9.51735 27.0706 9.47681 27.085C9.47028 27.0876 9.46373 27.0994 9.46112 27.1073C9.45719 27.1204 9.45589 27.1348 9.45589 27.1492C9.45589 27.1741 9.46243 27.1963 9.48858 27.2068C9.52911 27.2225 9.5618 27.2487 9.59449 27.2775C9.66117 27.3391 9.69516 27.415 9.69908 27.5041C9.70693 27.6652 9.71739 27.8262 9.73308 27.986C9.73831 28.0397 9.72786 28.0908 9.68863 28.1314C9.65856 28.1628 9.62325 28.1864 9.57618 28.1837C9.54349 28.1837 9.5095 28.1837 9.47681 28.1811C9.45197 28.1798 9.42712 28.1536 9.42058 28.1235C9.41405 28.0908 9.43366 28.0528 9.46504 28.0436C9.4925 28.0358 9.51996 28.0318 9.55264 28.0253C9.55657 28.0096 9.56572 27.9912 9.56572 27.9742C9.56572 27.9127 9.5631 27.8511 9.55918 27.7896C9.55134 27.69 9.54088 27.5918 9.53435 27.4923C9.5265 27.3705 9.39967 27.3129 9.29114 27.3718C9.27153 27.3823 9.25453 27.4032 9.24407 27.4229C9.23231 27.4425 9.22577 27.4674 9.22316 27.4897C9.21139 27.6547 9.19962 27.821 9.18916 27.986C9.18785 28.0161 9.20355 28.0279 9.231 28.0331C9.25454 28.0371 9.27807 28.0397 9.3003 28.0475C9.33298 28.0593 9.34606 28.1143 9.32645 28.1458C9.31599 28.1628 9.3016 28.1759 9.28199 28.1785C9.2493 28.1824 9.21531 28.1811 9.18263 28.1837C9.10287 28.1903 9.02441 28.1025 9.02833 28.0292C9.03226 27.9624 9.02833 27.8969 9.03879 27.8302C9.05056 27.7608 9.04925 27.6887 9.05448 27.618C9.05841 27.5656 9.06495 27.5146 9.06756 27.4622C9.07149 27.3692 9.12247 27.3024 9.19177 27.2487C9.214 27.2317 9.24146 27.2212 9.26499 27.2068C9.27284 27.2016 9.28068 27.195 9.2833 27.1872C9.28722 27.1793 9.28722 27.1675 9.2833 27.161C9.27938 27.1544 9.26892 27.1479 9.26107 27.1479C9.24277 27.1479 9.22316 27.1531 9.20485 27.1584C9.1094 27.1872 9.01396 27.216 8.91982 27.2461C8.90674 27.25 8.89236 27.2553 8.87928 27.2605C8.83744 27.2775 8.80868 27.309 8.7956 27.3522C8.78514 27.3836 8.77861 27.4163 8.77338 27.4491C8.7603 27.529 8.74853 27.6088 8.73545 27.6874C8.73022 27.7202 8.72369 27.7529 8.71584 27.7856C8.70408 27.8302 8.66354 27.8537 8.61647 27.8446C8.59424 27.8406 8.5694 27.8184 8.5681 27.7987C8.56679 27.7712 8.56287 27.7411 8.5681 27.7136C8.58509 27.601 8.6034 27.4884 8.62301 27.3771C8.64131 27.2749 8.691 27.1924 8.78122 27.1348C8.81783 27.1112 8.85967 27.1007 8.9002 27.0876C9.01788 27.051 9.13555 27.0169 9.25323 26.9803C9.28199 26.9711 9.30029 26.9528 9.30683 26.9213C9.34083 26.7576 9.43366 26.6385 9.57749 26.556C9.58926 26.5494 9.60103 26.5402 9.61279 26.5324C9.62456 26.5245 9.62848 26.5075 9.62064 26.4957C9.59449 26.4564 9.56572 26.4185 9.54349 26.3765C9.50034 26.298 9.4572 26.2181 9.44282 26.1408C9.41798 26.1028 9.38659 26.1015 9.36044 26.0911C9.31468 26.0727 9.27938 26.0426 9.25323 26.002C9.23492 25.9732 9.22316 25.9431 9.22185 25.909C9.22185 25.8946 9.22185 25.8802 9.22185 25.8658C9.21662 25.8056 9.231 25.7519 9.27154 25.7074C9.30553 25.6694 9.31599 25.6262 9.31599 25.5777C9.31468 25.4258 9.31599 25.2739 9.31599 25.122C9.31337 24.9334 9.39967 24.7959 9.55395 24.6951C9.60233 24.6636 9.65594 24.6466 9.71477 24.6479C9.81937 24.6492 9.92398 24.6479 10.0273 24.6479C10.2456 24.6479 10.464 24.6505 10.681 24.6479C10.766 24.6466 10.8379 24.6702 10.9046 24.7226C11.0314 24.8221 11.1086 24.9452 11.1007 25.1128C11.1007 25.1311 11.1007 25.1508 11.1007 25.1704C11.1007 25.2045 11.0929 25.2333 11.0746 25.2647C11.0458 25.3119 11.0458 25.3643 11.0785 25.4127C11.0929 25.4337 11.0994 25.4546 11.0994 25.4795C11.0994 25.5122 11.1007 25.5463 11.0994 25.579C11.0968 25.6288 11.106 25.672 11.1452 25.7074C11.1818 25.7414 11.1936 25.7886 11.1936 25.837C11.1936 25.8566 11.1936 25.875 11.1936 25.8946C11.1936 25.9915 11.1452 26.0557 11.0589 26.0937C11.0458 26.0989 11.0327 26.1028 11.0184 26.1068C10.9935 26.1146 10.9778 26.133 10.9713 26.1565C10.9373 26.2823 10.8719 26.3923 10.7974 26.497C10.7948 26.501 10.7948 26.5062 10.7935 26.5101C10.7935 26.5337 10.8118 26.5415 10.8275 26.5507C10.8902 26.5848 10.9465 26.6267 10.9935 26.683C11.0524 26.7537 11.0955 26.831 11.1099 26.9226C11.1151 26.9541 11.136 26.9724 11.1648 26.9816C11.2864 27.0195 11.4093 27.0575 11.5309 27.0942C11.5675 27.1047 11.6028 27.1164 11.6355 27.1374C11.7205 27.1911 11.7741 27.2657 11.7911 27.3653C11.8068 27.4543 11.8199 27.5434 11.8356 27.6324C11.8604 27.7765 11.8839 27.9218 11.9114 28.0672C11.9349 28.1877 11.9611 28.3095 11.9519 28.4339L11.9545 28.4195Z" fill="#F52424"/>
<path d="M21.5896 18.5807C21.5177 18.2232 21.3856 17.8892 21.179 17.588C20.6626 16.8364 19.9461 16.4278 19.04 16.3571C18.8177 16.34 18.5954 16.3584 18.3757 16.4029C18.1469 16.4487 17.9273 16.5194 17.7168 16.619C16.8878 17.0092 16.2314 17.8382 16.1464 18.9015C16.1294 19.1189 16.136 19.3389 16.1739 19.555C16.2275 19.8614 16.323 20.1535 16.4746 20.4246C16.8473 21.0885 17.3951 21.5364 18.1247 21.7551C18.445 21.8507 18.7719 21.8926 19.1066 21.8572C19.3054 21.8363 19.5002 21.8022 19.6911 21.7446C20.0167 21.6464 20.3135 21.4919 20.5802 21.281C21.1006 20.8685 21.434 20.3355 21.5791 19.686C21.6092 19.5511 21.6288 19.4149 21.6236 19.2774C21.6223 19.225 21.6236 19.1726 21.6236 19.1202C21.6236 19.0534 21.621 18.9867 21.6236 18.9212C21.6288 18.8059 21.6118 18.6933 21.5896 18.582V18.5807ZM17.2199 17.8696C17.2761 17.8264 17.3454 17.8054 17.3873 17.808C17.5586 17.808 17.6645 17.867 17.7338 17.9888C17.7481 18.0136 17.7612 18.0385 17.7717 18.0634C17.8227 18.1918 17.7808 18.3031 17.7024 18.4052C17.6383 18.489 17.5442 18.5218 17.4487 18.548C17.4317 18.5532 17.4108 18.5519 17.3925 18.548C17.3245 18.5283 17.2565 18.5074 17.2003 18.4628C17.1166 18.3947 17.0656 18.3096 17.0578 18.1983C17.0473 18.0556 17.1153 17.9534 17.2212 17.8722L17.2199 17.8696ZM17.7181 18.9382C17.7102 18.9408 17.7011 18.95 17.6998 18.9565C17.6945 18.9893 17.6906 19.022 17.6906 19.0548C17.6906 19.3062 17.6906 19.5576 17.6906 19.8091C17.6906 20.0422 17.6906 20.274 17.6906 20.5071C17.6906 20.545 17.6906 20.583 17.6906 20.621C17.688 20.7022 17.6357 20.748 17.5716 20.786C17.5599 20.7925 17.5455 20.7978 17.5311 20.8004C17.4461 20.8161 17.3624 20.8187 17.2787 20.7899C17.2356 20.7755 17.2068 20.7441 17.1807 20.7114C17.1728 20.7009 17.1689 20.6852 17.1676 20.6721C17.165 20.6197 17.1637 20.5673 17.1637 20.5162C17.1637 20.3316 17.1637 20.1456 17.1637 19.961C17.1637 19.9374 17.1624 19.9138 17.1571 19.8903C17.1545 19.8772 17.1441 19.8654 17.1284 19.8641C17.114 19.8628 17.0996 19.8614 17.0865 19.8601C16.9506 19.8457 16.8617 19.7541 16.8551 19.6192C16.8551 19.5956 16.8551 19.572 16.8551 19.5485C16.8551 19.3206 16.8551 19.0927 16.8551 18.8649C16.8551 18.8413 16.8551 18.8177 16.8551 18.7942C16.8577 18.6999 16.8956 18.6305 16.9859 18.5938C17.0081 18.5846 17.029 18.5741 17.0526 18.5741C17.0996 18.5741 17.148 18.5741 17.1951 18.5741C17.2617 18.5728 17.3271 18.5702 17.3938 18.5676C17.4082 18.5676 17.4226 18.565 17.437 18.5663C17.5925 18.5833 17.7494 18.5728 17.9064 18.5741C18.0672 18.5755 18.2293 18.5768 18.3901 18.5741C18.4503 18.5741 18.5013 18.5938 18.5483 18.6265C18.5849 18.6527 18.6059 18.6907 18.615 18.7326C18.6216 18.7653 18.6163 18.7981 18.5954 18.8269C18.5483 18.8937 18.4843 18.929 18.4032 18.9303C18.2986 18.9317 18.194 18.9303 18.0907 18.9303C17.9874 18.9303 17.8815 18.9303 17.7782 18.9303C17.7599 18.9303 17.7403 18.9343 17.7233 18.9408L17.7181 18.9382ZM18.5379 20.9274C18.445 20.9733 18.3391 20.9981 18.2358 20.9759C18.0972 20.9458 17.9613 20.9065 17.8567 20.7991C17.8357 20.7781 17.824 20.7546 17.8214 20.7245C17.8122 20.5909 17.8567 20.4756 17.926 20.3643C17.9691 20.2949 18.0279 20.2412 18.0907 20.1901C18.1051 20.1784 18.1064 20.1535 18.0933 20.1391C18.0554 20.0972 18.0162 20.0579 17.9992 20.0003C17.9796 19.9335 17.973 19.8719 18.0096 19.8091C18.024 19.7842 18.0345 19.758 18.0502 19.7344C18.1012 19.6598 18.1744 19.6205 18.2646 19.6139C18.3208 19.61 18.3771 19.6139 18.4307 19.6401C18.4987 19.6716 18.5457 19.7213 18.5771 19.7881C18.5902 19.8182 18.6019 19.8497 18.6085 19.8824C18.6137 19.9047 18.6137 19.9309 18.6085 19.9518C18.5915 20.0107 18.5732 20.0697 18.5261 20.1142C18.5156 20.1234 18.5078 20.1351 18.4973 20.1482C18.5104 20.1849 18.5326 20.1954 18.5496 20.2111C18.5771 20.236 18.6072 20.2609 18.6333 20.2871C18.6503 20.3041 18.6582 20.3277 18.6477 20.3525C18.6425 20.3656 18.6372 20.3787 18.6307 20.3918C18.6202 20.4128 18.6111 20.435 18.598 20.4547C18.5274 20.5581 18.5196 20.676 18.5248 20.7952C18.5261 20.8318 18.5418 20.8672 18.5496 20.9039C18.5509 20.9117 18.5457 20.9248 18.5392 20.9287L18.5379 20.9274ZM19.7447 20.8567C19.7395 20.8737 19.729 20.8921 19.7159 20.9052C19.6963 20.9261 19.6767 20.9471 19.6519 20.9615C19.563 21.0165 19.4701 21.0623 19.3681 21.0885C19.3459 21.0951 19.3224 21.099 19.2989 21.1003C19.2086 21.1003 19.1184 21.1003 19.0282 21.1003C19.0099 21.1003 18.9903 21.0977 18.972 21.0924C18.8752 21.0676 18.7837 21.0296 18.6987 20.9772C18.6752 20.9628 18.6529 20.9418 18.6346 20.9222C18.5823 20.8672 18.5562 20.803 18.5693 20.7271C18.5876 20.6197 18.6137 20.5162 18.6673 20.4167C18.7301 20.3015 18.8046 20.2019 18.9197 20.1351C18.9262 20.1312 18.9301 20.1207 18.9354 20.1142C18.9354 20.0867 18.9105 20.0762 18.8974 20.0566C18.8831 20.0369 18.8687 20.0186 18.8556 19.999C18.8451 19.9832 18.8308 19.9688 18.8255 19.9518C18.7562 19.7672 18.8059 19.5629 18.9955 19.4633C19.0491 19.4345 19.1066 19.4149 19.172 19.4162C19.2988 19.4201 19.3982 19.4738 19.4754 19.572C19.5564 19.6742 19.5617 19.7907 19.5303 19.9086C19.5146 19.9675 19.4806 20.0212 19.4361 20.0657C19.4231 20.0788 19.41 20.0919 19.3982 20.105C19.4034 20.1155 19.4034 20.1273 19.41 20.1299C19.5224 20.1928 19.593 20.2897 19.648 20.4049C19.6924 20.4992 19.7316 20.5948 19.7552 20.6983C19.7669 20.752 19.7591 20.8017 19.7447 20.8528V20.8567ZM20.5109 20.7389C20.5083 20.7559 20.5004 20.7768 20.4874 20.7886C20.4364 20.8384 20.3802 20.8816 20.3122 20.9078C20.2507 20.9314 20.1893 20.9589 20.1252 20.972C20.0415 20.9877 19.9565 20.9942 19.8741 20.9589C19.848 20.9484 19.8219 20.9379 19.7944 20.9274C19.7931 20.913 19.7879 20.8986 19.7918 20.8868C19.8114 20.807 19.8166 20.7284 19.7892 20.6485C19.7892 20.5581 19.7408 20.4861 19.7016 20.4115C19.6623 20.3368 19.6636 20.308 19.729 20.253C19.7578 20.2294 19.7852 20.2019 19.814 20.1744C19.8009 20.1312 19.7774 20.1142 19.7591 20.0932C19.6676 19.9859 19.6872 19.8261 19.7643 19.7266C19.8663 19.5969 20.0494 19.5786 20.1866 19.6663C20.2363 19.6978 20.2677 19.7449 20.2899 19.7986C20.3017 19.8287 20.3096 19.8614 20.3174 19.8929C20.32 19.906 20.3213 19.9217 20.3174 19.9348C20.2952 20.0068 20.2795 20.0815 20.218 20.1351C20.2036 20.1482 20.2076 20.1705 20.2233 20.1849C20.2376 20.1967 20.2533 20.2085 20.2677 20.2203C20.3802 20.3132 20.4573 20.4272 20.4913 20.5725C20.5044 20.6289 20.5188 20.6825 20.5109 20.7402V20.7389ZM20.6626 19.2027C20.6626 19.2355 20.6626 19.2695 20.6626 19.3023C20.66 19.3664 20.6377 19.39 20.5789 19.3926C20.541 19.3926 20.5031 19.3926 20.4651 19.3926C20.1239 19.3926 19.7826 19.3926 19.4414 19.3926C18.9628 19.3926 18.4843 19.3926 18.0044 19.3926C17.9626 19.3926 17.9194 19.39 17.8776 19.3874C17.8593 19.3874 17.8318 19.3573 17.8279 19.3402C17.8214 19.2983 17.8188 19.2551 17.8279 19.2132C17.8318 19.1975 17.8501 19.1765 17.8658 19.1752C17.8894 19.1726 17.9129 19.17 17.9364 19.17C18.0358 19.17 18.1352 19.17 18.2345 19.17C18.9131 19.17 19.5904 19.17 20.269 19.17C20.3161 19.17 20.3632 19.17 20.4115 19.1674C20.4338 19.1674 20.4534 19.1438 20.456 19.1202C20.4573 19.0967 20.4586 19.0731 20.4586 19.0495C20.4586 18.5846 20.4586 18.1184 20.4586 17.6535C20.4586 17.6299 20.456 17.6064 20.4534 17.5828C20.4521 17.5671 20.4311 17.5488 20.4142 17.5474C20.3998 17.5474 20.3854 17.5448 20.3723 17.5448C20.3435 17.5448 20.3148 17.5448 20.2873 17.5448C19.4191 17.5448 18.5523 17.5448 17.6841 17.5448C17.6409 17.5448 17.5991 17.5461 17.5559 17.5474C17.5363 17.5474 17.5206 17.5592 17.518 17.5815C17.5023 17.6784 17.4775 17.6797 17.3938 17.6784C17.3847 17.6784 17.3755 17.6784 17.365 17.6771C17.3324 17.6745 17.3101 17.6548 17.3101 17.6247C17.3088 17.5867 17.3075 17.5488 17.3088 17.5108C17.3088 17.3209 17.2918 17.334 17.4853 17.3327C17.9874 17.3327 18.4908 17.3327 18.9929 17.3327C19.495 17.3327 19.9879 17.3327 20.4861 17.3327C20.6796 17.3327 20.6652 17.3261 20.6652 17.5095C20.6652 18.0739 20.6652 18.6396 20.6652 19.204L20.6626 19.2027Z" fill="#F52424"/>
<path d="M9.16304 18.4746C9.45984 18.434 9.74619 18.3528 10.0181 18.2219C10.855 17.8185 11.4407 17.0144 11.5597 16.086C11.5689 16.0152 11.5806 15.9445 11.5819 15.8738C11.5859 15.7127 11.5846 15.5516 11.561 15.3906C11.5218 15.1208 11.4512 14.8628 11.3413 14.6127C10.9674 13.772 10.145 13.0923 9.06759 12.9888C8.7721 12.96 8.48052 12.9888 8.19287 13.0569C7.87122 13.1329 7.57311 13.2638 7.29984 13.4498C6.77291 13.8099 6.40811 14.2932 6.21068 14.9021C6.144 15.1103 6.10216 15.3238 6.08777 15.5425C6.0747 15.7337 6.07862 15.9223 6.10477 16.1108C6.14531 16.3989 6.22898 16.6753 6.35581 16.9372C6.83175 17.9167 7.82938 18.4995 8.82178 18.4916C8.93554 18.4864 9.04929 18.4877 9.16173 18.4733L9.16304 18.4746ZM10.4928 16.0925C10.4928 16.2876 10.4902 16.4814 10.4928 16.6766C10.4941 16.8259 10.3777 16.9751 10.2012 16.9882C10.06 16.9974 9.91747 16.9882 9.77495 16.9882C9.75011 16.9882 9.73442 16.9673 9.73442 16.9398V16.3701H9.73704C9.73704 16.2182 9.73573 16.0663 9.73704 15.9144C9.73835 15.8188 9.7318 15.7245 9.70827 15.6328C9.70435 15.6145 9.72004 15.5922 9.73704 15.5909C9.85994 15.5844 9.98285 15.5752 10.1044 15.6053C10.328 15.663 10.4928 15.8725 10.4915 16.0925H10.4928ZM9.78411 14.5433C10.0182 14.5236 10.2587 14.7266 10.264 14.9977C10.2692 15.2806 10.0286 15.4796 9.80372 15.4744C9.52915 15.4836 9.3304 15.2374 9.3304 15.0108C9.3304 14.7476 9.56052 14.5341 9.78411 14.5433ZM8.72503 13.9658C9.06629 13.9671 9.33955 14.2486 9.34348 14.5813C9.3474 14.9859 8.99306 15.2295 8.72764 15.2085C8.38115 15.2085 8.09611 14.9335 8.10134 14.5904C8.10657 14.2107 8.41253 13.9645 8.72633 13.9658H8.72503ZM7.6411 14.5433C7.90391 14.5276 8.11442 14.7646 8.11572 15.0043C8.11703 15.2347 7.9209 15.4744 7.64763 15.4757C7.40836 15.4757 7.18609 15.2753 7.18086 15.0187C7.17432 14.7358 7.42274 14.5315 7.6411 14.5446V14.5433ZM7.7274 15.6761C7.70778 15.7455 7.70909 15.8175 7.70909 15.8882C7.7104 16.2392 7.7117 16.5914 7.71301 16.9424C7.71301 16.966 7.69471 16.9869 7.66856 16.9869C7.53127 16.9869 7.39398 16.9922 7.25669 16.9869C7.16255 16.9843 7.0841 16.9411 7.02265 16.8678C6.9795 16.8141 6.95335 16.7551 6.95335 16.6857C6.95335 16.581 6.95335 16.4762 6.95335 16.3727C6.95335 16.2824 6.95596 16.192 6.95335 16.1017C6.9455 15.879 7.12202 15.6486 7.35868 15.6001C7.40052 15.5909 7.44236 15.5844 7.4855 15.5844C7.54303 15.5844 7.59926 15.5844 7.65679 15.5844C7.7287 15.5844 7.75354 15.5936 7.73001 15.6747L7.7274 15.6761ZM8.12357 16.9909C8.08565 16.9909 8.04773 16.9909 8.00982 16.9896C7.94313 16.9843 7.89476 16.9359 7.89084 16.8704C7.88953 16.852 7.88953 16.8324 7.88953 16.8141C7.88953 16.5011 7.88953 16.1868 7.88953 15.8738C7.88953 15.8162 7.89868 15.7612 7.91306 15.7049C7.96405 15.5019 8.17064 15.3225 8.40469 15.3225C8.61781 15.3225 8.83094 15.3212 9.04406 15.3225C9.30425 15.3251 9.50561 15.532 9.54091 15.735C9.54876 15.7821 9.5566 15.828 9.5566 15.8764C9.5566 16.1894 9.5566 16.5037 9.5566 16.8167C9.5566 16.8403 9.5566 16.8638 9.55268 16.8874C9.54483 16.9398 9.50038 16.983 9.44808 16.9882C9.41016 16.9922 9.37224 16.9909 9.33432 16.9922C9.13035 16.9922 8.92638 16.9922 8.72241 16.9922C8.51844 16.9922 8.32362 16.9922 8.12488 16.9922L8.12357 16.9909Z" fill="#F52424"/>
<path d="M2.2633 15.917C3.51197 15.917 4.51875 14.91 4.5266 13.6633C4.53444 12.3969 3.50674 11.382 2.2633 11.382C1.01463 11.382 0.00130751 12.4022 0 13.6489C0.00130751 14.8733 0.987171 15.9144 2.26461 15.9157L2.2633 15.917ZM1.18984 14.9728C1.18984 14.9728 1.18199 14.9768 1.17676 14.9781C1.09046 14.9912 1.0447 15.0423 1.02901 15.1261C1.02247 15.1614 0.97802 15.1732 0.934873 15.1549C0.927027 15.1523 0.917873 15.1431 0.916565 15.1365C0.902183 15.0475 0.853807 14.9925 0.763589 14.9755C0.734824 14.9702 0.737435 14.9414 0.73482 14.9257C0.73482 14.8864 0.743971 14.8707 0.766199 14.8615C0.784504 14.855 0.802813 14.8511 0.819811 14.8445C0.857729 14.8301 0.882567 14.8026 0.89695 14.7659C0.904795 14.7437 0.91003 14.7214 0.919183 14.6991C0.927028 14.6782 0.953179 14.6651 0.976714 14.6664C0.996326 14.6677 1.01332 14.6769 1.02247 14.6939C1.0264 14.7018 1.02901 14.7109 1.03163 14.7201C1.03424 14.7293 1.03555 14.7384 1.03947 14.7476C1.05647 14.8 1.09046 14.838 1.14538 14.8524C1.15845 14.8563 1.17284 14.8576 1.18722 14.8615C1.21076 14.8694 1.22514 14.8903 1.22514 14.9152C1.22514 14.9401 1.21206 14.9637 1.19114 14.9728H1.18984ZM3.58912 14.4949C3.57081 14.5001 3.55251 14.5027 3.5342 14.5093C3.48582 14.5263 3.45444 14.5577 3.44137 14.6088C3.43614 14.6271 3.4309 14.6455 3.42306 14.6625C3.41521 14.6808 3.38776 14.6939 3.36292 14.6926C3.342 14.6926 3.32761 14.6808 3.31715 14.6638C3.31454 14.6599 3.31192 14.6546 3.31192 14.6507C3.29754 14.559 3.24524 14.508 3.15371 14.4949C3.13279 14.4922 3.11711 14.4634 3.11842 14.4385C3.11972 14.4124 3.13149 14.3888 3.15633 14.3849C3.24786 14.3691 3.29885 14.3194 3.31323 14.2277C3.31716 14.2028 3.33938 14.1897 3.36553 14.1871C3.39037 14.1845 3.41914 14.1976 3.42568 14.2159C3.43352 14.2382 3.43745 14.2618 3.44529 14.284C3.45837 14.322 3.4819 14.3508 3.52112 14.3639C3.54335 14.3718 3.56558 14.377 3.58912 14.3849C3.61134 14.3914 3.62311 14.4124 3.62311 14.4412C3.62311 14.47 3.61134 14.4896 3.58912 14.4975V14.4949ZM2.74446 13.0661C2.77453 12.9902 2.83207 12.9443 2.91444 12.9325C2.9419 12.9286 2.97066 12.9273 2.99943 12.9247C3.00335 12.9247 3.00727 12.9194 3.01512 12.9142C3.01642 12.8854 3.02035 12.8527 3.02035 12.8199C3.02035 12.6772 3.02035 12.5357 3.02035 12.393C3.02035 12.3642 3.02296 12.3367 3.02558 12.3079C3.02689 12.2922 3.0478 12.2725 3.06349 12.2699C3.07788 12.2673 3.09095 12.2634 3.10534 12.2634C3.31323 12.2634 3.52243 12.2634 3.73033 12.2634C3.74471 12.2634 3.75909 12.2634 3.77217 12.2699C3.78394 12.2751 3.79832 12.2856 3.80224 12.2961C3.80878 12.3131 3.80878 12.3328 3.80878 12.3524C3.80878 12.6182 3.80878 12.8841 3.80878 13.1499C3.80878 13.1683 3.80878 13.1879 3.80486 13.2062C3.80224 13.2193 3.79831 13.2337 3.79047 13.2455C3.7264 13.3477 3.59958 13.3843 3.49498 13.3136C3.40215 13.2508 3.37992 13.1499 3.42045 13.0504C3.4466 12.9849 3.50543 12.9522 3.57212 12.9339C3.58519 12.9299 3.60088 12.9325 3.61396 12.9312C3.68326 12.926 3.6911 12.9194 3.6911 12.8592C3.6911 12.7269 3.6911 12.5934 3.6911 12.4611C3.6911 12.4467 3.6911 12.4323 3.68456 12.4192C3.67933 12.4061 3.67149 12.393 3.65449 12.3917C3.64926 12.3917 3.64534 12.3891 3.64011 12.3891C3.49367 12.3891 3.34592 12.3891 3.19948 12.3891C3.19033 12.3891 3.17986 12.3904 3.17202 12.3956C3.16417 12.3996 3.15502 12.4074 3.15371 12.414C3.14848 12.4415 3.14326 12.4703 3.14326 12.4978C3.14326 12.6824 3.14326 12.8684 3.14326 13.053C3.14326 13.0818 3.14326 13.1106 3.14326 13.1381C3.14718 13.2233 3.10665 13.2822 3.03604 13.3241C2.97328 13.3608 2.91052 13.3595 2.84645 13.3293C2.82553 13.3189 2.80592 13.3045 2.78892 13.2887C2.75231 13.256 2.72877 13.2154 2.73008 13.1643C2.73008 13.1316 2.73008 13.0962 2.74054 13.0661H2.74446ZM2.02403 12.9443C2.1051 12.8644 2.1757 12.7754 2.25023 12.6837C2.25023 12.6379 2.25023 12.5907 2.25154 12.5436C2.25154 12.4349 2.25284 12.3249 2.25154 12.2162C2.25154 12.156 2.28684 12.1206 2.33129 12.0905C2.34175 12.0826 2.35744 12.08 2.37182 12.0787C2.39013 12.0761 2.40974 12.0787 2.42805 12.0774C2.48819 12.0735 2.5248 12.1088 2.55357 12.1547C2.56272 12.1691 2.56534 12.19 2.56795 12.2084C2.58233 12.3459 2.53918 12.4703 2.47642 12.5894C2.46989 12.6025 2.46335 12.6156 2.4542 12.6248C2.3849 12.7008 2.37444 12.7911 2.37836 12.8893C2.38359 13.0268 2.37836 13.1643 2.37967 13.3018C2.37967 13.3346 2.3849 13.3673 2.38882 13.4027C2.41628 13.4066 2.43982 13.4132 2.46204 13.4118C2.5771 13.4079 2.67386 13.4511 2.76277 13.5179C2.85691 13.5886 2.92097 13.6829 2.94843 13.7955C2.96674 13.8689 2.96543 13.9475 2.94843 14.0208C2.91182 14.1806 2.819 14.3023 2.68563 14.3953C2.60718 14.4503 2.51827 14.4818 2.42413 14.5001C2.39667 14.5053 2.38229 14.5224 2.38098 14.5485C2.37967 14.5957 2.37836 14.6428 2.37836 14.6913C2.37836 14.8799 2.28553 15.0148 2.12863 15.1104C2.0711 15.1457 2.00834 15.1654 1.94035 15.164C1.90766 15.164 1.87366 15.1614 1.84098 15.164C1.67623 15.1771 1.4971 15.0331 1.43434 14.8982C1.39512 14.8144 1.38204 14.7266 1.3925 14.635C1.39512 14.6127 1.40427 14.5878 1.41734 14.5695C1.46964 14.4909 1.54286 14.4569 1.637 14.4713C1.7233 14.4844 1.79914 14.5721 1.80175 14.6599C1.80175 14.6743 1.80175 14.6887 1.80175 14.7031C1.80175 14.7489 1.78214 14.7856 1.75207 14.817C1.72592 14.8458 1.69453 14.8655 1.65923 14.8812C1.64223 14.8877 1.62523 14.8943 1.60824 14.9021C1.61477 14.9139 1.61609 14.9244 1.62262 14.9309C1.76776 15.075 1.98611 15.0815 2.13517 14.9467C2.15216 14.9309 2.16916 14.9126 2.18092 14.893C2.22407 14.8183 2.25676 14.7411 2.25415 14.652C2.25284 14.6101 2.25153 14.5669 2.25023 14.5302C2.21885 14.4935 2.17962 14.4896 2.14432 14.4818C2.04495 14.4595 1.95865 14.411 1.87758 14.3521C1.72199 14.2382 1.62524 14.0837 1.58732 13.8951C1.57424 13.8309 1.58209 13.7628 1.57947 13.696C1.57686 13.6188 1.59647 13.5467 1.62654 13.476C1.65661 13.4066 1.69322 13.3398 1.73899 13.2796C1.82659 13.1617 1.92073 13.0491 2.02533 12.9456L2.02403 12.9443ZM1.22122 12.2778C1.22775 12.2725 1.23822 12.2686 1.24606 12.266C1.25914 12.262 1.27352 12.2594 1.28659 12.2542C1.32843 12.2398 1.35981 12.2123 1.37419 12.1691C1.38204 12.1468 1.38727 12.1232 1.39904 12.1036C1.40427 12.0931 1.41996 12.0866 1.43172 12.0813C1.43957 12.0774 1.45003 12.08 1.45919 12.0787C1.48795 12.08 1.50102 12.0905 1.51017 12.118C1.51148 12.1219 1.51017 12.1272 1.51148 12.1324C1.52325 12.1992 1.56378 12.2411 1.62916 12.2594C1.64223 12.2634 1.65662 12.266 1.66969 12.2712C1.6893 12.2791 1.70369 12.304 1.70369 12.3288C1.70369 12.3537 1.68799 12.3786 1.66577 12.3825C1.57424 12.3943 1.52325 12.4454 1.50756 12.5371C1.50364 12.5606 1.48141 12.575 1.45657 12.5803C1.43303 12.5855 1.40427 12.5711 1.39773 12.5515C1.38988 12.5292 1.38335 12.5069 1.37681 12.4847C1.36112 12.4362 1.32582 12.4061 1.27744 12.3917C1.25913 12.3865 1.23952 12.3851 1.22383 12.376C1.20683 12.3668 1.19899 12.3498 1.19768 12.3288C1.19768 12.3092 1.20422 12.2922 1.21991 12.2791L1.22122 12.2778ZM0.887804 13.8034C0.911339 13.7995 0.934872 13.8008 0.958407 13.7995C0.983249 13.7982 0.99894 13.7798 1.00025 13.7523C1.00025 13.7144 1.00156 13.6764 1.00156 13.6384C1.00156 13.4538 1.00156 13.2678 1.00156 13.0831C1.00156 13.0504 1.00417 13.0164 1.00548 12.9836C1.00548 12.964 1.03162 12.9417 1.05385 12.9378C1.07608 12.9339 1.10747 12.9456 1.11662 12.9627C1.131 12.9928 1.14407 13.0229 1.15845 13.053C1.18068 13.0989 1.2173 13.1264 1.2709 13.1264C1.29052 13.1264 1.30882 13.1264 1.32713 13.129C1.40819 13.1395 1.4958 13.2141 1.50887 13.2901C1.51541 13.3267 1.50887 13.3647 1.50887 13.4027C1.50887 13.4236 1.48141 13.442 1.45657 13.442C1.42911 13.442 1.40427 13.4289 1.39904 13.4092C1.39511 13.3909 1.3938 13.3726 1.38857 13.3542C1.37419 13.294 1.33889 13.2626 1.28136 13.2573C1.23952 13.2534 1.19637 13.2521 1.15192 13.2495C1.14669 13.2612 1.13753 13.2743 1.13753 13.2874C1.13492 13.3254 1.13362 13.3634 1.13362 13.4014C1.13362 13.5821 1.13362 13.7615 1.13362 13.9422C1.13362 13.975 1.13362 14.009 1.13231 14.0417C1.13231 14.0758 1.11661 14.1059 1.09569 14.1321C1.01986 14.2277 0.891725 14.2421 0.804122 14.1793C0.763589 14.1504 0.736127 14.1138 0.73482 14.0627C0.73482 14.0339 0.73482 14.0051 0.73482 13.9776C0.72959 13.8741 0.810656 13.8191 0.890414 13.806L0.887804 13.8034Z" fill="#F52424"/>
<path d="M16.1791 13.4865C16.1765 14.6729 17.1244 15.7415 18.4398 15.7586C19.6701 15.7481 20.6835 14.7856 20.7109 13.4917C20.6835 12.1389 19.6048 11.2209 18.445 11.2222C17.1898 11.2222 16.1817 12.2502 16.1791 13.4878V13.4865ZM17.148 12.4663C17.2892 12.3052 17.467 12.1992 17.6736 12.1442C17.7154 12.1337 17.7572 12.1258 17.7991 12.1258C17.8893 12.1258 17.9795 12.1258 18.0697 12.1258C18.1129 12.1258 18.1547 12.1324 18.1953 12.1442C18.615 12.2673 18.8765 12.5423 18.9719 12.9692C19.0242 13.2036 18.9876 13.4315 18.8804 13.6475C18.8634 13.6816 18.8438 13.7143 18.8255 13.7471C18.8163 13.7641 18.819 13.7837 18.8333 13.7995C18.8595 13.827 18.8856 13.8545 18.9131 13.8806C19.104 14.0718 19.2962 14.263 19.4871 14.4542C19.5145 14.4804 19.5407 14.5079 19.5655 14.5367C19.6453 14.6323 19.644 14.7987 19.5119 14.8851C19.4884 14.9008 19.4622 14.9126 19.4322 14.9126C19.3171 14.9126 19.2896 14.9283 19.1785 14.817C18.9719 14.6075 18.7627 14.4005 18.5548 14.1923C18.5248 14.1622 18.4973 14.1295 18.4555 14.1059C18.4175 14.1216 18.3783 14.1386 18.3404 14.1543C18.207 14.2093 18.0697 14.2395 17.9259 14.2382C17.7102 14.2355 17.514 14.174 17.3388 14.0522C17.0786 13.8728 16.9244 13.6227 16.8851 13.3097C16.8446 12.9915 16.9348 12.7073 17.148 12.4663Z" fill="#F52424"/>
<path d="M8.51057 9.93753C8.50665 11.1895 9.54089 12.2149 10.7804 12.2122C12.0278 12.2083 13.0489 11.1659 13.0372 9.92575C13.0254 8.70654 12.0186 7.67198 10.7673 7.68115C9.52389 7.67853 8.51449 8.70785 8.51057 9.93884V9.93753ZM9.34476 9.44121C9.34476 9.41109 9.37876 9.37835 9.41145 9.37704C9.49643 9.37573 9.58142 9.37442 9.6664 9.37704C9.69517 9.37704 9.72132 9.3993 9.72786 9.42811C9.73701 9.46871 9.76316 9.47918 9.79977 9.47787C9.82723 9.47787 9.85599 9.47526 9.88607 9.47395C9.93052 9.3849 9.96845 9.31025 10.0077 9.23299C9.96191 9.17406 9.91091 9.12691 9.85338 9.07846C9.76054 9.07846 9.66641 9.07846 9.57096 9.07715C9.53304 9.07715 9.49512 9.07584 9.45721 9.07322C9.43106 9.07191 9.4036 9.0431 9.39968 9.01691C9.39968 9.01167 9.39837 9.00774 9.39837 9.0025C9.39837 8.865 9.39837 8.72749 9.39837 8.58999C9.39837 8.56249 9.42582 8.53761 9.45459 8.53761C9.59711 8.53761 9.73832 8.53761 9.88084 8.53761C9.9096 8.53761 9.93445 8.56249 9.93706 8.5913C9.93968 8.62404 9.9423 8.65678 9.9423 8.69083C9.9423 8.77595 9.9423 8.86107 9.9423 8.94619C9.9423 8.97631 9.95275 9.00119 9.97367 9.02215C10.0077 9.0562 10.0404 9.08893 10.0757 9.12167C10.09 9.13477 10.1097 9.13739 10.128 9.12822C10.145 9.12036 10.1606 9.10858 10.1763 9.09941C10.192 9.09024 10.2103 9.07715 10.2273 9.09155C10.2509 9.10989 10.2639 9.13477 10.2652 9.16489C10.2652 9.17275 10.2613 9.18453 10.2548 9.18977C10.2404 9.20287 10.2247 9.21334 10.209 9.22382C10.0913 9.30763 10.0221 9.42287 9.99721 9.56431C9.99198 9.59705 9.98805 9.62978 9.98544 9.66252C9.98151 9.70967 9.92137 9.72276 9.88476 9.70443C9.86646 9.69526 9.86515 9.67431 9.86123 9.65598C9.85731 9.62847 9.839 9.61538 9.81285 9.61407C9.79454 9.61407 9.77493 9.61407 9.75662 9.61669C9.74093 9.618 9.73309 9.62978 9.72786 9.64419C9.72655 9.64812 9.72655 9.65336 9.72524 9.6586C9.70694 9.75681 9.7004 9.76336 9.61149 9.76467C9.54089 9.76467 9.47028 9.76467 9.39837 9.76205C9.36306 9.76205 9.33561 9.73324 9.3343 9.69788C9.33168 9.61276 9.3343 9.52764 9.3343 9.44252L9.34476 9.44121ZM10.902 9.92444C10.9203 9.93229 10.9465 9.93098 10.9556 9.92051C10.9622 9.91265 10.97 9.90741 10.9739 9.89955C11.0694 9.70312 11.0576 9.51454 10.9308 9.33513C10.9138 9.31156 10.8929 9.29323 10.8746 9.27096C10.8667 9.26049 10.8628 9.24608 10.8562 9.2343C10.8654 9.2212 10.8719 9.2081 10.8811 9.19763C10.9125 9.16096 10.9334 9.15834 10.9635 9.18715C10.9831 9.20811 11.0014 9.22906 11.021 9.25001C11.0341 9.26311 11.0471 9.2762 11.0589 9.28799C11.072 9.28537 11.0837 9.28668 11.0903 9.28144C11.1831 9.22513 11.276 9.16751 11.3688 9.10989C11.3949 9.09417 11.408 9.06929 11.408 9.03786C11.408 8.98155 11.408 8.92393 11.408 8.86762C11.408 8.83881 11.408 8.81 11.408 8.7825C11.4106 8.71309 11.4342 8.68821 11.5035 8.68821C11.6734 8.6869 11.8447 8.68821 12.0147 8.68821C12.033 8.68821 12.0526 8.69214 12.0696 8.69999C12.0814 8.70523 12.0918 8.71833 12.0971 8.73011C12.1036 8.7419 12.1049 8.75761 12.1049 8.77202C12.1049 8.95274 12.1049 9.13215 12.1049 9.31287C12.1049 9.32204 12.1036 9.3312 12.1023 9.34168C12.0997 9.36263 12.0761 9.38752 12.0552 9.39013C12.0369 9.39275 12.0173 9.39537 11.999 9.39537C11.8382 9.39537 11.676 9.39537 11.5152 9.39537C11.4969 9.39537 11.4773 9.39537 11.459 9.39013C11.4342 9.3849 11.4172 9.36918 11.4106 9.3443C11.4054 9.32073 11.4041 9.29716 11.3976 9.27489C11.3962 9.26965 11.3832 9.26311 11.3753 9.26311C11.3662 9.26311 11.357 9.26703 11.3492 9.27227C11.2851 9.31156 11.2197 9.35216 11.1557 9.39275C11.1269 9.41109 11.1217 9.42942 11.1282 9.46609C11.1413 9.52633 11.153 9.58657 11.1674 9.65205C11.2498 9.69264 11.3439 9.70443 11.4315 9.72538C11.4433 9.71622 11.4538 9.71229 11.4564 9.70574C11.4734 9.66776 11.4995 9.6455 11.5427 9.6455C11.6329 9.6455 11.7231 9.6455 11.8133 9.6455C11.8225 9.6455 11.8316 9.64812 11.8408 9.65074C11.8617 9.65467 11.8866 9.67824 11.8905 9.69657C11.8905 9.70181 11.8944 9.70574 11.8944 9.70967C11.8944 9.81443 11.8944 9.91789 11.8944 10.0227C11.8944 10.0502 11.8669 10.0777 11.8421 10.0829C11.8277 10.0855 11.8146 10.0881 11.8003 10.0894C11.7192 10.0894 11.6394 10.0894 11.5584 10.0894C11.5401 10.0894 11.5205 10.0842 11.5035 10.079C11.4838 10.0724 11.4695 10.058 11.4682 10.0384C11.4642 10.0056 11.4642 9.97289 11.4629 9.93884C11.4603 9.87336 11.4538 9.8642 11.3962 9.84848C11.3322 9.83146 11.2681 9.81443 11.204 9.79872C11.17 9.78955 11.1465 9.80134 11.1347 9.83146C11.1164 9.87991 11.0994 9.92837 11.0811 9.97944C11.1007 9.98992 11.1164 10.0017 11.1334 10.0082C11.1596 10.0187 11.187 10.0253 11.2145 10.0357C11.3204 10.075 11.3714 10.1549 11.3753 10.2636C11.3779 10.3304 11.3766 10.3959 11.3753 10.4627C11.3753 10.5295 11.3727 10.5949 11.3714 10.6617C11.3439 10.722 11.3152 10.7822 11.2877 10.8424C11.2629 10.8935 11.2302 10.9433 11.2171 10.997C11.204 11.0507 11.2106 11.1096 11.2106 11.1672C11.2106 11.3047 11.2106 11.4422 11.2106 11.5797C11.2106 11.5981 11.2106 11.6177 11.2106 11.636C11.208 11.7068 11.1883 11.7277 11.1151 11.729C10.9072 11.729 10.698 11.729 10.4901 11.729C10.481 11.729 10.4718 11.7277 10.4614 11.7264C10.4352 11.7238 10.4065 11.7002 10.4012 11.6727C10.3973 11.6452 10.3934 11.6164 10.3934 11.5876C10.3934 11.4448 10.3934 11.3034 10.3934 11.1607C10.3934 11.1279 10.3921 11.0939 10.3934 11.0611C10.3973 11.0101 10.3764 10.9708 10.3437 10.9328C10.2901 10.8726 10.2417 10.8071 10.1881 10.7482C10.1476 10.7036 10.1253 10.6552 10.1306 10.5936C10.1345 10.5465 10.1345 10.498 10.1306 10.4509C10.1227 10.371 10.141 10.3016 10.1999 10.244C10.2025 10.2414 10.1999 10.2361 10.2012 10.2256C10.1672 10.1994 10.1293 10.1719 10.094 10.1405C10.0587 10.1091 10.026 10.075 9.99459 10.0423C9.98282 10.0423 9.97106 10.0384 9.96452 10.0423C9.87038 10.096 9.77624 10.151 9.69909 10.2099C9.67686 10.2414 9.68079 10.2662 9.68079 10.2885C9.68079 10.3736 9.68079 10.4587 9.68079 10.5452C9.68079 10.5687 9.67817 10.5923 9.67425 10.6159C9.67163 10.6342 9.64549 10.6604 9.62718 10.6643C9.61803 10.6657 9.60888 10.6696 9.59973 10.6696C9.47159 10.6696 9.34346 10.6696 9.21532 10.6696C9.20617 10.6696 9.19701 10.667 9.18786 10.6657C9.16825 10.6617 9.1421 10.6368 9.14079 10.6185C9.14079 10.6133 9.13948 10.6093 9.13948 10.6041C9.13948 10.4666 9.13948 10.3291 9.13948 10.1916C9.13948 10.1549 9.16432 10.1287 9.20093 10.1261C9.248 10.1235 9.29508 10.1222 9.34345 10.1222C9.41014 10.1222 9.47551 10.1222 9.5422 10.1222C9.58142 10.1222 9.61672 10.113 9.64941 10.0921C9.71347 10.0515 9.77755 10.0109 9.84161 9.97158C9.87822 9.94932 9.91222 9.92706 9.93314 9.88515C9.93968 9.87074 9.96321 9.86289 9.98021 9.85503C10.0037 9.84455 10.0312 9.8511 10.043 9.87074C10.06 9.89825 10.0757 9.92837 10.0953 9.95587C10.145 10.0266 10.209 10.0829 10.2875 10.1196C10.311 10.13 10.3359 10.1196 10.3424 10.0934C10.3463 10.079 10.3476 10.0646 10.3345 10.0541C10.3123 10.0357 10.2888 10.02 10.2666 10.0043C10.2273 9.97682 10.1933 9.94408 10.1672 9.90348C10.1567 9.88777 10.1593 9.86289 10.1737 9.85241C10.1855 9.84324 10.1973 9.83539 10.209 9.82884C10.2273 9.81967 10.2456 9.81967 10.2626 9.83277C10.2809 9.84717 10.2979 9.8642 10.3162 9.87729C10.3215 9.87991 10.3385 9.87467 10.3398 9.87074C10.345 9.85241 10.3476 9.83408 10.3489 9.81574C10.3502 9.75419 10.3489 9.69264 10.3515 9.63109C10.3555 9.55645 10.4104 9.50014 10.4862 9.48704C10.5372 9.47787 10.6144 9.52109 10.6366 9.57478C10.651 9.61014 10.6614 9.64681 10.6719 9.68217C10.6863 9.728 10.6967 9.77384 10.7124 9.81836C10.7163 9.83015 10.7307 9.84455 10.7412 9.84586C10.7503 9.84586 10.766 9.83277 10.7713 9.82229C10.8589 9.673 10.8288 9.50014 10.6941 9.40454C10.5019 9.26704 10.2404 9.38882 10.2143 9.60621C10.2116 9.62455 10.2129 9.64419 10.2103 9.66252C10.2077 9.68872 10.1946 9.70312 10.1672 9.71098C10.158 9.7136 10.1489 9.71491 10.1397 9.71622C10.1083 9.71883 10.0848 9.69788 10.0835 9.66776C10.0809 9.58526 10.1005 9.50669 10.1436 9.43728C10.2299 9.29846 10.3542 9.22513 10.5202 9.2212C10.6876 9.21727 10.9229 9.34954 10.9452 9.62062C10.9517 9.69788 10.9399 9.77253 10.9046 9.84193C10.8981 9.85503 10.8929 9.86813 10.8863 9.87991C10.8785 9.89825 10.885 9.9192 10.9007 9.92706L10.902 9.92444ZM10.7843 8.58737C10.7843 8.67642 10.7843 8.76678 10.7843 8.85583C10.7843 8.8794 10.7634 8.90298 10.7425 8.9069C10.7242 8.91083 10.7046 8.91083 10.6863 8.91345C10.647 8.92 10.63 8.94226 10.6405 8.98286C10.6431 8.99465 10.6523 9.01036 10.6627 9.0156C10.6967 9.03131 10.7333 9.0431 10.7673 9.0575C10.8053 9.07322 10.8105 9.09286 10.7883 9.13739C10.7856 9.14132 10.7843 9.14525 10.7817 9.14917C10.7726 9.16489 10.749 9.17668 10.7346 9.17275C10.7255 9.17013 10.7163 9.16751 10.7072 9.16489C10.6313 9.13477 10.5516 9.12822 10.4705 9.13084C10.4561 9.13084 10.4431 9.12953 10.4248 9.12691C10.4182 9.1112 10.4091 9.09417 10.4025 9.07715C10.3934 9.04834 10.4012 9.02869 10.4235 9.01822C10.4444 9.00905 10.4666 9.00119 10.4888 8.99072C10.5032 8.98286 10.5058 8.93702 10.4914 8.92655C10.4836 8.92131 10.4758 8.91476 10.4666 8.91345C10.4169 8.90298 10.396 8.86893 10.3947 8.82178C10.3934 8.755 10.3947 8.68952 10.3947 8.62273C10.3947 8.61356 10.3973 8.6044 10.3986 8.59523C10.4038 8.56642 10.4287 8.54023 10.4548 8.54023C10.549 8.54023 10.6431 8.54023 10.7373 8.54023C10.7595 8.54023 10.783 8.56511 10.783 8.58737H10.7843Z" fill="#F52424"/>
<path d="M16.7518 10.9237C17.2735 10.9237 17.7193 10.5085 17.735 9.94806C17.7219 9.38232 17.2748 8.96981 16.7557 8.96588C16.2405 8.96719 15.779 9.37578 15.7764 9.94282C15.7738 10.4941 16.2235 10.9211 16.7518 10.9224V10.9237Z" fill="#F52424"/>
<path d="M7.76004 3.47485C7.78881 3.51152 7.8228 3.54557 7.85287 3.58224C7.86594 3.59795 7.86595 3.6176 7.85549 3.63462C7.84895 3.64379 7.84503 3.65426 7.85549 3.6595C7.86072 3.66212 7.87248 3.65426 7.88033 3.64903C7.8921 3.63855 7.90517 3.63462 7.91955 3.64117C7.93263 3.64641 7.9444 3.65426 7.95617 3.66212C8.09738 3.76427 8.25428 3.82582 8.42817 3.84153C8.46609 3.84546 8.50401 3.85725 8.54062 3.85332C8.6243 3.84284 8.70928 3.83367 8.79166 3.8101C9.31335 3.66474 9.6507 3.08198 9.43627 2.52149C9.28721 2.13255 8.90933 1.88766 8.52362 1.89028C8.3288 1.89028 8.15099 1.94659 7.98885 2.05398C7.69467 2.2491 7.48677 2.61709 7.56783 3.05448C7.5966 3.21294 7.66328 3.35044 7.76134 3.47616L7.76004 3.47485Z" fill="#F52424"/>
<path d="M3.54462 10.9237C4.0807 10.9263 4.52395 10.4902 4.52656 9.95066C4.52918 9.4085 4.08855 8.96979 3.55378 8.96717C2.99809 8.96456 2.57053 9.42683 2.57315 9.94149C2.564 10.4378 2.97455 10.921 3.54462 10.9237Z" fill="#F52424"/>
<path d="M9.04403 5.59506C9.04403 6.20008 9.57226 6.59819 10.0181 6.57069C10.5254 6.59688 11.0131 6.12805 10.9922 5.6003C11.021 5.15112 10.6235 4.61943 10.022 4.62205C9.46113 4.61681 9.04272 5.08695 9.04272 5.59506H9.04403Z" fill="#F52424"/>
<path d="M15.3868 9.03004C15.6483 9.03135 15.8156 8.79432 15.796 8.61229C15.8143 8.42371 15.6261 8.19846 15.3789 8.2037C15.1462 8.20894 14.9736 8.41323 14.9723 8.6136C14.971 8.79039 15.1096 9.02742 15.3881 9.03004H15.3868Z" fill="#F52424"/>
<path d="M8.44259 1.55374C8.64264 1.55767 8.8623 1.39921 8.86753 1.14516C8.87276 0.878008 8.63479 0.715622 8.45697 0.723479C8.27261 0.707765 8.03073 0.889794 8.0438 1.1373C8.02942 1.37433 8.25692 1.55112 8.44128 1.55374H8.44259Z" fill="#F52424"/>
<path d="M4.32915 8.62541C4.52004 8.63588 4.73317 8.48397 4.75278 8.2142C4.73709 7.9811 4.56188 7.79907 4.33176 7.79907C4.09249 7.79907 3.92513 8.00598 3.9199 8.20504C3.91467 8.42373 4.10948 8.63327 4.32915 8.62541Z" fill="#F52424"/>
<path d="M8.64658 0.415714C8.69496 0.465478 8.74726 0.503455 8.81787 0.486431C8.84532 0.486431 8.86886 0.48774 8.89239 0.486431C8.90547 0.486431 8.92116 0.482502 8.93293 0.474645C9.01661 0.415714 9.08983 0.350236 9.07414 0.232375C9.07152 0.214041 9.07413 0.194398 9.07021 0.176064C9.0676 0.162968 9.06237 0.148563 9.05583 0.136777C9.02576 0.0870133 8.98523 0.0477264 8.93685 0.0162968C8.92508 0.00843942 8.9107 0.000582029 8.89762 0.000582029C8.85055 -0.000727536 8.80349 0.000582029 8.75642 0.000582029C8.74334 0.000582029 8.72765 0.00712985 8.71719 0.0149872C8.63351 0.069989 8.57206 0.136777 8.58644 0.24809C8.58644 0.257257 8.58644 0.266424 8.58644 0.2769C8.58383 0.333212 8.60736 0.376427 8.64528 0.415714H8.64658Z" fill="#F52424"/>
<path d="M15.3632 7.54501C15.3776 7.55549 15.3972 7.56203 15.4155 7.56334C15.4391 7.56596 15.4626 7.56334 15.4835 7.56334C15.5398 7.56989 15.5868 7.55941 15.6287 7.51882C15.7267 7.42453 15.7163 7.41667 15.7202 7.30929C15.7228 7.23726 15.7006 7.18095 15.6457 7.13381C15.6051 7.09845 15.562 7.07357 15.5058 7.0775C15.477 7.08011 15.4495 7.0775 15.4208 7.0775C15.3907 7.0775 15.3659 7.09059 15.3423 7.10762C15.2652 7.16393 15.2207 7.23464 15.2299 7.33679C15.2351 7.39179 15.2482 7.43894 15.2874 7.47691C15.311 7.50048 15.3358 7.52275 15.3619 7.54239L15.3632 7.54501Z" fill="#F52424"/>
<path d="M4.75802 7.44543C4.80901 7.51353 4.87047 7.55936 4.95676 7.54365C4.98553 7.54365 5.00906 7.54365 5.03259 7.54365C5.06136 7.54365 5.0862 7.53317 5.10974 7.51484C5.18165 7.45984 5.2248 7.39305 5.21042 7.29745C5.2078 7.27912 5.21041 7.25947 5.2078 7.24114C5.20649 7.22804 5.20387 7.21233 5.19603 7.20054C5.14242 7.11673 5.07574 7.05649 4.96722 7.06435C4.94891 7.06566 4.9293 7.06435 4.911 7.06828C4.88877 7.07352 4.86393 7.07875 4.84562 7.09054C4.76848 7.14292 4.71095 7.2084 4.72403 7.31186C4.72533 7.32626 4.72403 7.34067 4.72403 7.35376C4.72272 7.38912 4.73579 7.41793 4.75671 7.44412L4.75802 7.44543Z" fill="#F52424"/>
<path d="M5.38826 19.7174C5.18952 19.72 5.05876 19.8811 5.0653 20.0579C5.07184 20.236 5.21566 20.3827 5.39349 20.384C5.57523 20.384 5.72691 20.2321 5.7256 20.0474C5.72299 19.8732 5.59223 19.7148 5.38826 19.7187V19.7174ZM5.39349 20.1862C5.32811 20.1875 5.26666 20.126 5.26404 20.0592C5.26012 19.9806 5.31373 19.9178 5.38695 19.9138C5.46017 19.9099 5.52424 19.9715 5.52686 20.0448C5.52947 20.1325 5.44709 20.1836 5.39349 20.1849V20.1862Z" fill="#F52424"/>
<path d="M5.39349 20.659C5.27059 20.659 5.1673 20.7638 5.1673 20.8882C5.1673 21.0152 5.26666 21.1134 5.39349 21.1134C5.52032 21.1134 5.61839 21.0152 5.61839 20.8882C5.61839 20.7625 5.5177 20.6603 5.39349 20.6603V20.659ZM5.40003 20.9825C5.35557 20.9864 5.3072 20.9471 5.30066 20.9013C5.29282 20.8502 5.33466 20.7978 5.38826 20.7939C5.43403 20.79 5.47979 20.8266 5.48764 20.8738C5.49679 20.9248 5.45494 20.9759 5.40134 20.9812L5.40003 20.9825Z" fill="#F52424"/>
<path d="M2.00183 19.741C1.82924 19.7397 1.6828 19.8484 1.68672 19.9846C1.69065 20.1234 1.81224 20.2321 1.9966 20.2321C2.19273 20.2321 2.30517 20.105 2.29994 19.9937C2.30256 19.8497 2.17572 19.7423 2.00052 19.741H2.00183ZM1.99267 20.088C1.92861 20.0854 1.86455 20.0304 1.86847 19.9819C1.87239 19.9322 1.92861 19.889 1.99006 19.8876C2.05936 19.885 2.11558 19.9296 2.11689 19.9872C2.11689 20.0422 2.05674 20.0919 1.99267 20.0893V20.088Z" fill="#F52424"/>
<path d="M2.01746 20.6825C1.88933 20.6917 1.79388 20.7794 1.79388 20.913C1.79388 21.04 1.89587 21.1382 2.02139 21.1369C2.15999 21.1343 2.24367 21.0309 2.24498 20.9091C2.24628 20.7873 2.13384 20.6747 2.01616 20.6825H2.01746ZM2.0227 21.006C1.96909 21.0086 1.92725 20.9628 1.92986 20.9038C1.93248 20.8541 1.97431 20.8174 2.02531 20.82C2.07499 20.8226 2.11292 20.8632 2.11161 20.9143C2.11161 20.9628 2.07107 21.0034 2.02139 21.0073L2.0227 21.006Z" fill="#F52424"/>
<path d="M15.1605 22.2566C15.1514 22.2566 15.1422 22.2592 15.1331 22.2605C14.95 22.2828 14.7683 22.3051 14.5852 22.3273C14.3277 22.3588 14.0688 22.3889 13.8112 22.4203C13.7641 22.4255 13.7184 22.44 13.6739 22.4517C13.6608 22.4557 13.6491 22.4661 13.6399 22.4766C13.636 22.4819 13.6347 22.495 13.6386 22.5002C13.6595 22.5277 13.6896 22.5408 13.7223 22.5473C13.7275 22.5473 13.7327 22.5473 13.7367 22.546C13.9799 22.5133 14.2231 22.4805 14.4663 22.4491C14.6624 22.4242 14.8598 22.4033 15.0573 22.3797C15.0991 22.3745 15.1409 22.3666 15.1828 22.3574C15.2063 22.3522 15.2233 22.3286 15.2207 22.3051C15.2181 22.2776 15.1893 22.254 15.1618 22.2553L15.1605 22.2566Z" fill="#F52424"/>
<path d="M10.7857 25.8789C10.7399 25.8527 10.7242 25.8095 10.7242 25.7584C10.7242 25.6301 10.7242 25.5018 10.7242 25.3747C10.7242 25.3368 10.7242 25.2988 10.7229 25.2608C10.719 25.2032 10.6811 25.1652 10.6222 25.1626C10.532 25.1573 10.4405 25.1521 10.3686 25.2241C10.3646 25.2267 10.3607 25.2294 10.3568 25.232C10.2561 25.2844 10.1568 25.2844 10.0587 25.2267C10.0378 25.215 10.0208 25.1979 9.99986 25.1862C9.98416 25.177 9.96455 25.1665 9.94755 25.1665C9.89133 25.1639 9.8338 25.1639 9.77758 25.1678C9.73966 25.1704 9.70697 25.2071 9.70436 25.2438C9.70174 25.2765 9.70174 25.3106 9.70174 25.3433C9.70174 25.4664 9.69912 25.5895 9.70174 25.7126C9.70435 25.7951 9.68736 25.8632 9.60629 25.9012C9.60237 25.9025 9.60106 25.909 9.59452 25.9208C9.58929 25.9797 9.58406 26.0452 9.60498 26.1107C9.65598 26.2665 9.73573 26.404 9.86518 26.5088C10.0626 26.6699 10.3516 26.6699 10.549 26.5141C10.6641 26.4237 10.7399 26.3058 10.7935 26.1709C10.8197 26.1042 10.8301 26.0347 10.8275 25.9627C10.8275 25.9274 10.8171 25.8986 10.7844 25.8802L10.7857 25.8789Z" fill="#F52424"/>
<path d="M10.5163 26.8519C10.5071 26.8257 10.5045 26.7969 10.498 26.7681C10.4954 26.7576 10.4758 26.7472 10.464 26.7485C10.4548 26.7498 10.4444 26.7485 10.4365 26.7524C10.2823 26.7995 10.1293 26.7982 9.975 26.7524C9.96715 26.7498 9.95669 26.7524 9.93707 26.755C9.91746 26.81 9.90047 26.8585 9.88347 26.9082C9.87693 26.9279 9.87954 26.9462 9.89523 26.9593C9.9933 27.0418 10.0953 27.1178 10.2038 27.1911C10.226 27.1793 10.2483 27.1715 10.2666 27.1584C10.3359 27.1086 10.4039 27.0575 10.4705 27.0038C10.5424 26.9462 10.5529 26.9554 10.515 26.8519H10.5163Z" fill="#F52424"/>
<path d="M11.0053 27.5434C10.9478 27.5499 10.8994 27.5971 10.8941 27.6547C10.8915 27.6783 10.8928 27.7018 10.8941 27.7254C10.8981 27.766 10.9203 27.7961 10.953 27.8171C10.9726 27.8289 10.9961 27.8367 11.0184 27.8419C11.1295 27.8642 11.2236 27.7594 11.1923 27.6494C11.1713 27.5761 11.1256 27.5421 11.0458 27.5434C11.0314 27.5434 11.0171 27.5421 11.004 27.5434H11.0053Z" fill="#F52424"/>
<path d="M10.2365 27.6573C10.2365 27.6573 10.2326 27.6481 10.2287 27.6455C10.2247 27.6429 10.2208 27.6416 10.2156 27.6403C10.2064 27.6363 10.1973 27.6402 10.192 27.6494C10.1541 27.728 10.1646 27.8157 10.1319 27.8969C10.1554 27.9454 10.1777 27.9912 10.2012 28.0384C10.2012 28.041 10.2077 28.041 10.2117 28.0423C10.2156 28.0397 10.2208 28.0384 10.2234 28.0344C10.2352 28.0148 10.247 27.9938 10.2574 27.9729C10.281 27.9297 10.2836 27.8838 10.277 27.8354C10.2692 27.7738 10.2522 27.7149 10.2352 27.656L10.2365 27.6573Z" fill="#F52424"/>
<path d="M9.8756 27.1544C9.8756 27.1544 9.86644 27.1544 9.86382 27.1571C9.86121 27.1597 9.85729 27.1649 9.8586 27.1689C9.8586 27.178 9.86252 27.1872 9.86644 27.2055C9.8769 27.2304 9.88998 27.2644 9.90436 27.2985C9.9109 27.3142 9.93312 27.3234 9.95143 27.3168C9.97366 27.309 9.99458 27.2998 10.0155 27.2906C10.0273 27.2854 10.0312 27.2644 10.022 27.2566C9.97759 27.216 9.93051 27.1793 9.87691 27.1531L9.8756 27.1544Z" fill="#F52424"/>
<path d="M10.4875 27.1885C10.4588 27.2133 10.4287 27.2356 10.3999 27.2605C10.396 27.2644 10.3999 27.2775 10.3999 27.2854C10.3999 27.2893 10.4065 27.2932 10.4104 27.2945C10.481 27.3351 10.5124 27.3338 10.5359 27.2526C10.5425 27.2304 10.5516 27.2081 10.5568 27.1845C10.5621 27.1649 10.5555 27.1479 10.5438 27.1321C10.5255 27.1505 10.5071 27.1701 10.4862 27.1871L10.4875 27.1885Z" fill="#F52424"/>
<path d="M10.2482 27.4596C10.2482 27.4596 10.2587 27.4582 10.2613 27.4543C10.2665 27.4478 10.2718 27.4399 10.2744 27.4321C10.2744 27.4294 10.2718 27.4229 10.2678 27.4203C10.2299 27.381 10.1829 27.3862 10.1489 27.4281C10.1449 27.4334 10.1476 27.4478 10.1528 27.453C10.158 27.4582 10.1698 27.4582 10.1776 27.4609C10.2025 27.4609 10.226 27.4609 10.2495 27.4609L10.2482 27.4596Z" fill="#F52424"/>
<path d="M11.0144 25.909C11.0144 25.909 11.0236 25.9064 11.0249 25.9038C11.0288 25.892 11.0328 25.8789 11.0314 25.8658C11.0314 25.8592 11.0236 25.8514 11.0171 25.8462C11.0079 25.8383 10.9948 25.8501 10.9935 25.8697C10.9935 25.8789 10.9935 25.8881 10.9948 25.8959C10.9961 25.9077 11.0027 25.9116 11.0131 25.909H11.0144Z" fill="#F52424"/>
<path d="M9.4075 25.8357C9.4075 25.8357 9.39574 25.8475 9.39312 25.8553C9.39051 25.8632 9.3905 25.8737 9.3905 25.8828C9.3905 25.8986 9.40358 25.9156 9.41012 25.909C9.41535 25.9025 9.41796 25.8933 9.42058 25.8881C9.42058 25.8776 9.42188 25.8671 9.42058 25.8593C9.41796 25.8514 9.41143 25.8436 9.4075 25.837V25.8357Z" fill="#F52424"/>
<path d="M1.96781 14.2539C2.03188 14.2958 2.09987 14.3286 2.17309 14.3469C2.22408 14.3587 2.24893 14.3495 2.24893 14.2958C2.24893 14.2447 2.25677 14.1911 2.23977 14.1387C2.18094 14.0994 2.1221 14.0601 2.08157 13.9999C2.06588 13.9763 2.04757 13.9514 2.04103 13.9252C2.00834 13.789 2.02535 13.662 2.12864 13.5572C2.16525 13.5206 2.20447 13.4865 2.24239 13.4511C2.25285 13.3451 2.25416 13.0792 2.24501 12.9352C2.23193 12.9378 2.21624 12.9365 2.2084 12.9443C2.09464 13.0517 1.99134 13.1683 1.89459 13.2914C1.85929 13.3359 1.82529 13.3831 1.79914 13.4315C1.74161 13.5363 1.70892 13.6476 1.70892 13.7707C1.70892 13.8296 1.72592 13.8833 1.74292 13.937C1.78345 14.0666 1.85406 14.178 1.97043 14.2539H1.96781Z" fill="#F52424"/>
<path d="M2.47774 14.1413C2.45552 14.1504 2.43329 14.157 2.41237 14.1674C2.39406 14.1766 2.38361 14.1923 2.38361 14.2133C2.38361 14.2513 2.3836 14.2892 2.38622 14.3259C2.38622 14.3338 2.39537 14.3416 2.40191 14.3508C2.42021 14.3508 2.43852 14.3508 2.45683 14.3508C2.46598 14.3508 2.47643 14.3508 2.48428 14.3469C2.68302 14.2761 2.78763 14.1557 2.82293 13.9343C2.82685 13.9068 2.82293 13.8767 2.81639 13.8505C2.80724 13.8139 2.79285 13.7785 2.77847 13.7445C2.72355 13.6135 2.55489 13.5375 2.42937 13.548C2.40583 13.5506 2.38491 13.569 2.38491 13.5952C2.38491 13.7222 2.38491 13.8505 2.38491 13.9776C2.38491 13.9985 2.4176 14.0155 2.43852 14.0077C2.49213 13.988 2.53658 13.9304 2.53397 13.8793C2.53397 13.8662 2.53004 13.8505 2.5235 13.8387C2.51174 13.8191 2.49605 13.8008 2.48167 13.7824C2.47252 13.772 2.45944 13.7641 2.45421 13.7523C2.44375 13.73 2.44506 13.7065 2.45421 13.6829C2.46075 13.6672 2.49605 13.6541 2.51697 13.658C2.52612 13.6593 2.53658 13.6606 2.54443 13.6646C2.60457 13.6986 2.65164 13.7458 2.66472 13.8152C2.67779 13.8859 2.67256 13.9553 2.62941 14.0195C2.59019 14.0771 2.5405 14.1164 2.47905 14.1426L2.47774 14.1413Z" fill="#F52424"/>
<path d="M2.40056 12.3773C2.40056 12.3773 2.41233 12.3759 2.41364 12.3733C2.4241 12.3432 2.43586 12.3118 2.4424 12.2803C2.44632 12.2633 2.4411 12.2437 2.43587 12.2267C2.43456 12.2201 2.42149 12.2175 2.41495 12.2122C2.40449 12.2096 2.39533 12.2122 2.39141 12.2227C2.37441 12.2725 2.37441 12.3223 2.39141 12.3707C2.39141 12.3733 2.39794 12.3773 2.40056 12.3773Z" fill="#F52424"/>
<path d="M17.9377 13.8335C18.1129 13.8191 18.2724 13.7667 18.3966 13.6358C18.5235 13.5022 18.5862 13.3437 18.5823 13.1578C18.5758 12.8265 18.3077 12.5226 17.9285 12.5226C17.603 12.5253 17.2944 12.7675 17.28 13.18C17.2996 13.5533 17.5585 13.8152 17.9377 13.8322V13.8335Z" fill="#F52424"/>
</svg>
