<svg width="92" height="92" viewBox="0 0 92 92" fill="none" xmlns="http://www.w3.org/2000/svg">
<rect width="92" height="92" rx="16" fill="#E6E8F2"/>
<g clip-path="url(#clip0_5_11909)">
<path d="M74.8333 46H56.1667C55.5289 46 55 45.32 55 44.5C55 43.68 55.5289 43 56.1667 43H74.8333C75.4711 43 76 43.68 76 44.5C76 45.32 75.4711 46 74.8333 46Z" fill="#041578"/>
<path d="M40.5292 73C40.496 72.6756 40.437 72.3475 40.437 72.0231C40.4296 69.179 40.437 66.3312 40.4297 63.4871C40.4297 62.9175 40.5255 62.3804 40.721 61.8397C42.742 56.2956 44.7483 50.7479 46.7582 45.2002C46.9131 44.7748 47.0495 44.3422 47.1344 43.8844C45.98 45.7445 44.9622 47.673 43.9185 49.5871C42.8526 51.5445 41.7831 53.4983 40.7173 55.4521C39.6662 57.377 38.6115 59.2983 37.553 61.2377C37.0994 61.335 36.6716 61.3314 36.1959 61.2377C36.0742 60.9349 35.9414 60.6357 35.8271 60.3293C33.0464 52.9468 30.2693 45.5606 27.4739 38.1817C27.2489 37.5833 27.1051 36.9885 27.1087 36.3505C27.1124 35.8206 27.0645 35.2943 27.0423 34.7644C27.0276 34.4112 26.869 34.1552 26.5629 33.9425C25.711 33.3405 24.8812 32.7133 24.0404 32.0969C21.5768 30.2873 19.1169 28.4741 16.6534 26.6609C16.4911 26.542 16.3436 26.4086 16.1371 26.2392C16.1371 24.9271 15.9895 23.5861 16.0006 22.2415C16.1444 22.1874 16.2366 22.1334 16.3288 22.1262C16.5649 22.1081 16.8009 22.1081 17.0406 22.1081C22.9376 22.0901 28.831 22.0685 34.7281 22.0541C45.0285 22.0324 55.329 22.018 65.6295 22C66.0315 22 66.4335 22.0144 66.8133 22.0216C67.0162 22.7282 67.0604 24.7648 66.9129 26.3654C63.3872 28.9608 59.8209 31.5886 56.1994 34.2561C56.1477 35.024 56.074 35.8098 56.0482 36.5992C56.0297 37.1399 55.897 37.6374 55.7052 38.1349C51.3128 49.4141 46.9242 60.6934 42.5392 71.9726C42.4064 72.3115 42.2884 72.6575 42.163 73H40.5292Z" fill="#041578"/>
<path d="M65.5 55C64.68 55 64 54.4711 64 53.8333V35.1667C64 34.5289 64.68 34 65.5 34C66.32 34 67 34.5289 67 35.1667V53.8333C67 54.4711 66.32 55 65.5 55Z" fill="#041578"/>
</g>
<defs>
<clipPath id="clip0_5_11909">
<rect width="72" height="72" fill="white" transform="translate(10 10)"/>
</clipPath>
</defs>
</svg>
