<svg width="92" height="92" viewBox="0 0 92 92" fill="none" xmlns="http://www.w3.org/2000/svg">
<rect width="92" height="92" rx="16" fill="#E6E8F2"/>
<path d="M63.9995 33.7301C63.9095 33.7301 63.8495 33.7301 63.7595 33.7301H63.6095C57.9395 33.5501 53.7095 29.17 53.7095 23.77C53.7095 18.25 58.2095 13.78 63.6995 13.78C69.1895 13.78 73.6895 18.28 73.6895 23.77C73.6595 29.2 69.4295 33.58 64.0295 33.76C64.0295 33.73 64.0295 33.7301 63.9995 33.7301ZM63.6995 18.25C60.6695 18.25 58.2095 20.7101 58.2095 23.7401C58.2095 26.7101 60.5195 29.1101 63.4895 29.2301C63.5195 29.2001 63.7595 29.2001 64.0295 29.2301C66.9395 29.0801 69.1895 26.6801 69.2195 23.7401C69.2195 20.7101 66.7595 18.25 63.6995 18.25Z" fill="#041578"/>
<path d="M64.03 55.8401C62.86 55.8401 61.69 55.7501 60.52 55.5401C59.29 55.3301 58.48 54.1601 58.69 52.9301C58.9 51.7001 60.07 50.8901 61.3 51.1001C64.99 51.7301 68.89 51.0401 71.5 49.3001C72.91 48.3701 73.66 47.2001 73.66 46.0301C73.66 44.8601 72.88 43.7201 71.5 42.7901C68.89 41.0501 64.93 40.3601 61.21 41.0201C59.98 41.2601 58.81 40.4201 58.6 39.1901C58.39 37.9601 59.2 36.7901 60.43 36.5801C65.32 35.7101 70.39 36.6401 73.99 39.0401C76.63 40.8101 78.16 43.3301 78.16 46.0301C78.16 48.7001 76.66 51.2501 73.99 53.0501C71.26 54.8501 67.72 55.8401 64.03 55.8401Z" fill="#041578"/>
<path d="M27.9099 33.73C27.8799 33.73 27.8499 33.73 27.8499 33.73C22.4499 33.55 18.2199 29.17 18.1899 23.77C18.1899 18.25 22.6899 13.75 28.1799 13.75C33.6699 13.75 38.1699 18.25 38.1699 23.74C38.1699 29.17 33.9399 33.55 28.5399 33.73L27.9099 31.48L28.1199 33.73C28.0599 33.73 27.9699 33.73 27.9099 33.73ZM28.2099 29.23C28.3899 29.23 28.5399 29.23 28.7199 29.26C31.3899 29.14 33.7299 26.74 33.7299 23.77C33.7299 20.74 31.2699 18.28 28.2399 18.28C25.2099 18.28 22.7499 20.74 22.7499 23.77C22.7499 26.71 25.0299 29.08 27.9399 29.26C27.9699 29.23 28.0899 29.23 28.2099 29.23Z" fill="#041578"/>
<path d="M27.88 55.8401C24.19 55.8401 20.65 54.8501 17.92 53.0501C15.28 51.2801 13.75 48.7301 13.75 46.0301C13.75 43.3601 15.28 40.8101 17.92 39.0401C21.52 36.6401 26.59 35.7101 31.48 36.5801C32.71 36.7901 33.52 37.9601 33.31 39.1901C33.1 40.4201 31.93 41.2601 30.7 41.0201C26.98 40.3601 23.05 41.0501 20.41 42.7901C19 43.7201 18.25 44.8601 18.25 46.0301C18.25 47.2001 19.03 48.3701 20.41 49.3001C23.02 51.0401 26.92 51.7301 30.61 51.1001C31.84 50.8901 33.01 51.7301 33.22 52.9301C33.43 54.1601 32.62 55.3301 31.39 55.5401C30.22 55.7501 29.05 55.8401 27.88 55.8401Z" fill="#041578"/>
<path d="M45.9995 56.14C45.9095 56.14 45.8495 56.14 45.7595 56.14H45.6095C39.9395 55.96 35.7095 51.5799 35.7095 46.1799C35.7095 40.6599 40.2095 36.1899 45.6995 36.1899C51.1895 36.1899 55.6895 40.6899 55.6895 46.1799C55.6595 51.6099 51.4295 55.99 46.0295 56.17C46.0295 56.14 46.0295 56.14 45.9995 56.14ZM45.6995 40.66C42.6695 40.66 40.2095 43.12 40.2095 46.15C40.2095 49.12 42.5195 51.52 45.4895 51.64C45.5195 51.61 45.7595 51.61 46.0295 51.64C48.9395 51.49 51.1895 49.09 51.2195 46.15C51.2195 43.15 48.7595 40.66 45.6995 40.66Z" fill="#041578"/>
<path d="M45.9994 78.2799C42.3994 78.2799 38.7994 77.35 36.0094 75.46C33.3694 73.69 31.8394 71.1699 31.8394 68.4699C31.8394 65.7999 33.3394 63.2199 36.0094 61.4499C41.6194 57.7299 50.4094 57.7299 55.9894 61.4499C58.6294 63.2199 60.1594 65.7399 60.1594 68.4399C60.1594 71.1099 58.6594 73.69 55.9894 75.46C53.1994 77.32 49.5994 78.2799 45.9994 78.2799ZM38.4994 65.2299C37.0894 66.1599 36.3394 67.3299 36.3394 68.4999C36.3394 69.6699 37.1194 70.8099 38.4994 71.7399C42.5494 74.4699 49.4194 74.4699 53.4694 71.7399C54.8794 70.8099 55.6294 69.6399 55.6294 68.4699C55.6294 67.2999 54.8494 66.1599 53.4694 65.2299C49.4494 62.4999 42.5794 62.5299 38.4994 65.2299Z" fill="#041578"/>
</svg>
